%TF.GenerationSoftware,KiCad,Pcbnew,7.0.1*%
%TF.CreationDate,2023-04-02T20:01:42+09:00*%
%TF.ProjectId,first48,66697273-7434-4382-9e6b-696361645f70,rev?*%
%TF.SameCoordinates,Original*%
%TF.FileFunction,Copper,L1,Top*%
%TF.FilePolarity,Positive*%
%FSLAX46Y46*%
G04 Gerber Fmt 4.6, Leading zero omitted, Abs format (unit mm)*
G04 Created by KiCad (PCBNEW 7.0.1) date 2023-04-02 20:01:42*
%MOMM*%
%LPD*%
G01*
G04 APERTURE LIST*
%TA.AperFunction,WasherPad*%
%ADD10C,1.900000*%
%TD*%
%TA.AperFunction,WasherPad*%
%ADD11C,3.100000*%
%TD*%
%TA.AperFunction,ComponentPad*%
%ADD12C,1.524000*%
%TD*%
%TA.AperFunction,ComponentPad*%
%ADD13O,1.300000X1.000000*%
%TD*%
%TA.AperFunction,SMDPad,CuDef*%
%ADD14R,2.000000X1.600000*%
%TD*%
%TA.AperFunction,ComponentPad*%
%ADD15C,2.000000*%
%TD*%
%TA.AperFunction,ComponentPad*%
%ADD16O,2.550000X1.800000*%
%TD*%
%TA.AperFunction,SMDPad,CuDef*%
%ADD17C,14.000000*%
%TD*%
%TA.AperFunction,SMDPad,CuDef*%
%ADD18R,1.300000X0.950000*%
%TD*%
%TA.AperFunction,ViaPad*%
%ADD19C,0.800000*%
%TD*%
%TA.AperFunction,Conductor*%
%ADD20C,0.250000*%
%TD*%
%TA.AperFunction,Conductor*%
%ADD21C,0.500000*%
%TD*%
G04 APERTURE END LIST*
D10*
%TO.P,SW5,*%
%TO.N,*%
X96893750Y-59531200D03*
D11*
X97393750Y-63231200D03*
X102393750Y-65431200D03*
D10*
X107893750Y-59531200D03*
%TD*%
%TO.P,SW3,*%
%TO.N,*%
X58793750Y-59531200D03*
D11*
X59293750Y-63231200D03*
X64293750Y-65431200D03*
D10*
X69793750Y-59531200D03*
%TD*%
%TO.P,SW25,*%
%TO.N,*%
X30218750Y-97631200D03*
D11*
X30718750Y-101331200D03*
X35718750Y-103531200D03*
D10*
X41218750Y-97631200D03*
%TD*%
%TO.P,SW27,*%
%TO.N,*%
X68318750Y-97631200D03*
D11*
X68818750Y-101331200D03*
X73818750Y-103531200D03*
D10*
X79318750Y-97631200D03*
%TD*%
%TO.P,SW38,*%
%TO.N,*%
X65031250Y-116681200D03*
D11*
X59531250Y-122581200D03*
X54531250Y-120381200D03*
D10*
X54031250Y-116681200D03*
%TD*%
D12*
%TO.P,U1,1,D3/PIN1*%
%TO.N,Col8*%
X263898950Y-54578200D03*
%TO.P,U1,2,D2/PIN2*%
%TO.N,Col9*%
X263898950Y-57118200D03*
%TO.P,U1,3,GND*%
%TO.N,GND*%
X263898950Y-59658200D03*
%TO.P,U1,4,GND*%
X263898950Y-62198200D03*
%TO.P,U1,5,D1/PIN5/SDA*%
%TO.N,Col10*%
X263898950Y-64738200D03*
%TO.P,U1,6,D0/PIN6/SCL*%
%TO.N,Col11*%
X263898950Y-67278200D03*
%TO.P,U1,7,D4/PIN7*%
%TO.N,Row0*%
X263898950Y-69818200D03*
%TO.P,U1,8,C6/PIN8*%
%TO.N,Row1*%
X263898950Y-72358200D03*
%TO.P,U1,9,D7/PIN9*%
%TO.N,Row2*%
X263898950Y-74898200D03*
%TO.P,U1,10,E6/PIN10*%
%TO.N,Row3*%
X263898950Y-77438200D03*
%TO.P,U1,11,B4/PIN11*%
%TO.N,unconnected-(U1-B4{slash}PIN11-Pad11)*%
X263898950Y-79978200D03*
%TO.P,U1,12,B5/PIN12*%
%TO.N,unconnected-(U1-B5{slash}PIN12-Pad12)*%
X263898950Y-82518200D03*
%TO.P,U1,13,B6/PIN13*%
%TO.N,Col7*%
X279118950Y-82518200D03*
%TO.P,U1,14,B2/PIN14*%
%TO.N,Col6*%
X279118950Y-79978200D03*
%TO.P,U1,15,B3/PIN15*%
%TO.N,Col5*%
X279118950Y-77438200D03*
%TO.P,U1,16,B1/PIN16*%
%TO.N,Col4*%
X279118950Y-74898200D03*
%TO.P,U1,17,F7/PIN17*%
%TO.N,Col3*%
X279118950Y-72358200D03*
%TO.P,U1,18,F6/PIN18*%
%TO.N,Col2*%
X279118950Y-69818200D03*
%TO.P,U1,19,F5/PIN19*%
%TO.N,Col1*%
X279118950Y-67278200D03*
%TO.P,U1,20,F4/PIN20*%
%TO.N,Col0*%
X279118950Y-64738200D03*
%TO.P,U1,21,VCC*%
%TO.N,VCC*%
X279118950Y-62198200D03*
%TO.P,U1,22,RST*%
%TO.N,Reset*%
X279118950Y-59658200D03*
%TO.P,U1,23,GND*%
%TO.N,GND*%
X279118950Y-57118200D03*
%TO.P,U1,24,RAW*%
%TO.N,unconnected-(U1-RAW-Pad24)*%
X279118950Y-54578200D03*
%TO.P,U1,25,BAT+*%
%TO.N,Bat*%
X279118950Y-52038200D03*
%TO.P,U1,26,BAT-*%
%TO.N,GND*%
X263898950Y-52038200D03*
%TD*%
D10*
%TO.P,SW19,*%
%TO.N,*%
X150756250Y-78581200D03*
D11*
X145256250Y-84481200D03*
X140256250Y-82281200D03*
D10*
X139756250Y-78581200D03*
%TD*%
%TO.P,SW11,*%
%TO.N,*%
X211193750Y-59531200D03*
D11*
X211693750Y-63231200D03*
X216693750Y-65431200D03*
D10*
X222193750Y-59531200D03*
%TD*%
%TO.P,SW21,*%
%TO.N,*%
X188856250Y-78581200D03*
D11*
X183356250Y-84481200D03*
X178356250Y-82281200D03*
D10*
X177856250Y-78581200D03*
%TD*%
%TO.P,SW7,*%
%TO.N,*%
X134993750Y-59531200D03*
D11*
X135493750Y-63231200D03*
X140493750Y-65431200D03*
D10*
X145993750Y-59531200D03*
%TD*%
D12*
%TO.P,J2,1,Pin_1*%
%TO.N,Bat+*%
X257175050Y-96794000D03*
%TO.P,J2,2,Pin_2*%
%TO.N,Bat-*%
X257175050Y-94254000D03*
%TD*%
D10*
%TO.P,SW10,*%
%TO.N,*%
X192143750Y-59531200D03*
D11*
X192643750Y-63231200D03*
X197643750Y-65431200D03*
D10*
X203143750Y-59531200D03*
%TD*%
%TO.P,SW4,*%
%TO.N,*%
X77843750Y-59531200D03*
D11*
X78343750Y-63231200D03*
X83343750Y-65431200D03*
D10*
X88843750Y-59531200D03*
%TD*%
%TO.P,SW20,*%
%TO.N,*%
X169806250Y-78581200D03*
D11*
X164306250Y-84481200D03*
X159306250Y-82281200D03*
D10*
X158806250Y-78581200D03*
%TD*%
%TO.P,SW6,*%
%TO.N,*%
X115943750Y-59531200D03*
D11*
X116443750Y-63231200D03*
X121443750Y-65431200D03*
D10*
X126943750Y-59531200D03*
%TD*%
D13*
%TO.P,SW50,1,A*%
%TO.N,Bat*%
X252412550Y-54768700D03*
%TO.P,SW50,2,B*%
%TO.N,Net-(D49-K)*%
X254912550Y-54768700D03*
%TO.P,SW50,3,C*%
%TO.N,unconnected-(SW50-C-Pad3)*%
X257412550Y-54768700D03*
%TD*%
D10*
%TO.P,SW16,*%
%TO.N,*%
X93606250Y-78581200D03*
D11*
X88106250Y-84481200D03*
X83106250Y-82281200D03*
D10*
X82606250Y-78581200D03*
%TD*%
D14*
%TO.P,C1,1*%
%TO.N,Bat*%
X257175050Y-83343700D03*
%TO.P,C1,2*%
%TO.N,GND*%
X253175050Y-83343700D03*
%TD*%
D10*
%TO.P,SW14,*%
%TO.N,*%
X44506250Y-78581200D03*
D11*
X45006250Y-82281200D03*
X50006250Y-84481200D03*
D10*
X55506250Y-78581200D03*
%TD*%
%TO.P,SW17,*%
%TO.N,*%
X112656250Y-78581200D03*
D11*
X107156250Y-84481200D03*
X102156250Y-82281200D03*
D10*
X101656250Y-78581200D03*
%TD*%
%TO.P,SW9,*%
%TO.N,*%
X173093750Y-59531200D03*
D11*
X173593750Y-63231200D03*
X178593750Y-65431200D03*
D10*
X184093750Y-59531200D03*
%TD*%
D15*
%TO.P,SW49,1,1*%
%TO.N,Reset*%
X258043750Y-66675000D03*
%TO.P,SW49,2,2*%
%TO.N,GND*%
X251543750Y-66675000D03*
%TD*%
D10*
%TO.P,SW23,*%
%TO.N,*%
X226956250Y-78581200D03*
D11*
X221456250Y-84481200D03*
X216456250Y-82281200D03*
D10*
X215956250Y-78581200D03*
%TD*%
D16*
%TO.P,BT1,1,+*%
%TO.N,Net-(BT1-+)*%
X271462550Y-108206300D03*
X271462550Y-126206300D03*
D17*
%TO.P,BT1,2,-*%
%TO.N,GND*%
X271462550Y-117206300D03*
%TD*%
D10*
%TO.P,SW15,*%
%TO.N,*%
X63556250Y-78581200D03*
D11*
X64056250Y-82281200D03*
X69056250Y-84481200D03*
D10*
X74556250Y-78581200D03*
%TD*%
%TO.P,SW8,*%
%TO.N,*%
X154043750Y-59531200D03*
D11*
X154543750Y-63231200D03*
X159543750Y-65431200D03*
D10*
X165043750Y-59531200D03*
%TD*%
%TO.P,SW18,*%
%TO.N,*%
X131706250Y-78581200D03*
D11*
X126206250Y-84481200D03*
X121206250Y-82281200D03*
D10*
X120706250Y-78581200D03*
%TD*%
%TO.P,SW22,*%
%TO.N,*%
X207906250Y-78581200D03*
D11*
X202406250Y-84481200D03*
X197406250Y-82281200D03*
D10*
X196906250Y-78581200D03*
%TD*%
%TO.P,SW2,*%
%TO.N,*%
X39743750Y-59531200D03*
D11*
X40243750Y-63231200D03*
X45243750Y-65431200D03*
D10*
X50743750Y-59531200D03*
%TD*%
%TO.P,SW33,*%
%TO.N,*%
X182618750Y-97631200D03*
D11*
X183118750Y-101331200D03*
X188118750Y-103531200D03*
D10*
X193618750Y-97631200D03*
%TD*%
D18*
%TO.P,D50,1,K*%
%TO.N,Net-(D49-K)*%
X257331250Y-73818700D03*
%TO.P,D50,2,A*%
%TO.N,Net-(BT2-+)*%
X253781250Y-73818700D03*
%TD*%
D10*
%TO.P,SW31,*%
%TO.N,*%
X144518750Y-97631200D03*
D11*
X145018750Y-101331200D03*
X150018750Y-103531200D03*
D10*
X155518750Y-97631200D03*
%TD*%
%TO.P,SW37,*%
%TO.N,*%
X45981250Y-116681200D03*
D11*
X40481250Y-122581200D03*
X35481250Y-120381200D03*
D10*
X34981250Y-116681200D03*
%TD*%
%TO.P,SW42,*%
%TO.N,*%
X141231250Y-116681200D03*
D11*
X135731250Y-122581200D03*
X130731250Y-120381200D03*
D10*
X130231250Y-116681200D03*
%TD*%
D17*
%TO.P,BT2,2,-*%
%TO.N,GND*%
X271462550Y-95250000D03*
D16*
%TO.P,BT2,1,+*%
%TO.N,Net-(BT2-+)*%
X271462550Y-104250000D03*
X271462550Y-86250000D03*
%TD*%
D10*
%TO.P,SW40,*%
%TO.N,*%
X103131250Y-116681200D03*
D11*
X97631250Y-122581200D03*
X92631250Y-120381200D03*
D10*
X92131250Y-116681200D03*
%TD*%
%TO.P,SW29,*%
%TO.N,*%
X106418750Y-97631200D03*
D11*
X106918750Y-101331200D03*
X111918750Y-103531200D03*
D10*
X117418750Y-97631200D03*
%TD*%
%TO.P,SW48,*%
%TO.N,*%
X255531250Y-116681200D03*
D11*
X250031250Y-122581200D03*
X245031250Y-120381200D03*
D10*
X244531250Y-116681200D03*
%TD*%
%TO.P,SW46,*%
%TO.N,*%
X217431250Y-116681200D03*
D11*
X211931250Y-122581200D03*
X206931250Y-120381200D03*
D10*
X206431250Y-116681200D03*
%TD*%
%TO.P,SW34,*%
%TO.N,*%
X201668750Y-97631200D03*
D11*
X202168750Y-101331200D03*
X207168750Y-103531200D03*
D10*
X212668750Y-97631200D03*
%TD*%
%TO.P,SW24,*%
%TO.N,*%
X246006250Y-78581200D03*
D11*
X240506250Y-84481200D03*
X235506250Y-82281200D03*
D10*
X235006250Y-78581200D03*
%TD*%
%TO.P,SW39,*%
%TO.N,*%
X84081250Y-116681200D03*
D11*
X78581250Y-122581200D03*
X73581250Y-120381200D03*
D10*
X73081250Y-116681200D03*
%TD*%
%TO.P,SW28,*%
%TO.N,*%
X87368750Y-97631200D03*
D11*
X87868750Y-101331200D03*
X92868750Y-103531200D03*
D10*
X98368750Y-97631200D03*
%TD*%
%TO.P,SW13,*%
%TO.N,*%
X25456250Y-78581200D03*
D11*
X25956250Y-82281200D03*
X30956250Y-84481200D03*
D10*
X36456250Y-78581200D03*
%TD*%
%TO.P,SW36,*%
%TO.N,*%
X239768750Y-97631200D03*
D11*
X240268750Y-101331200D03*
X245268750Y-103531200D03*
D10*
X250768750Y-97631200D03*
%TD*%
%TO.P,SW43,*%
%TO.N,*%
X160281250Y-116681200D03*
D11*
X154781250Y-122581200D03*
X149781250Y-120381200D03*
D10*
X149281250Y-116681200D03*
%TD*%
%TO.P,SW26,*%
%TO.N,*%
X49268750Y-97631200D03*
D11*
X49768750Y-101331200D03*
X54768750Y-103531200D03*
D10*
X60268750Y-97631200D03*
%TD*%
%TO.P,SW41,*%
%TO.N,*%
X122181250Y-116681200D03*
D11*
X116681250Y-122581200D03*
X111681250Y-120381200D03*
D10*
X111181250Y-116681200D03*
%TD*%
%TO.P,SW30,*%
%TO.N,*%
X125468750Y-97631200D03*
D11*
X125968750Y-101331200D03*
X130968750Y-103531200D03*
D10*
X136468750Y-97631200D03*
%TD*%
%TO.P,SW35,*%
%TO.N,*%
X220718750Y-97631200D03*
D11*
X221218750Y-101331200D03*
X226218750Y-103531200D03*
D10*
X231718750Y-97631200D03*
%TD*%
%TO.P,SW47,*%
%TO.N,*%
X236481250Y-116681200D03*
D11*
X230981250Y-122581200D03*
X225981250Y-120381200D03*
D10*
X225481250Y-116681200D03*
%TD*%
%TO.P,SW12,*%
%TO.N,*%
X230243750Y-59531200D03*
D11*
X230743750Y-63231200D03*
X235743750Y-65431200D03*
D10*
X241243750Y-59531200D03*
%TD*%
%TO.P,SW45,*%
%TO.N,*%
X198381250Y-116681200D03*
D11*
X192881250Y-122581200D03*
X187881250Y-120381200D03*
D10*
X187381250Y-116681200D03*
%TD*%
%TO.P,SW1,*%
%TO.N,*%
X20693750Y-59531200D03*
D11*
X21193750Y-63231200D03*
X26193750Y-65431200D03*
D10*
X31693750Y-59531200D03*
%TD*%
%TO.P,SW32,*%
%TO.N,*%
X163568750Y-97631200D03*
D11*
X164068750Y-101331200D03*
X169068750Y-103531200D03*
D10*
X174568750Y-97631200D03*
%TD*%
%TO.P,SW44,*%
%TO.N,*%
X179331250Y-116681200D03*
D11*
X173831250Y-122581200D03*
X168831250Y-120381200D03*
D10*
X168331250Y-116681200D03*
%TD*%
D18*
%TO.P,D49,1,K*%
%TO.N,Net-(D49-K)*%
X257331250Y-78581200D03*
%TO.P,D49,2,A*%
%TO.N,Net-(BT1-+)*%
X253781250Y-78581200D03*
%TD*%
D19*
%TO.N,Net-(D49-K)*%
X256083550Y-71589300D03*
%TO.N,Net-(BT2-+)*%
X256062350Y-74433700D03*
%TO.N,Net-(BT1-+)*%
X261252850Y-84240500D03*
%TO.N,Col11*%
X247900850Y-67555000D03*
%TO.N,Col10*%
X223815650Y-67555000D03*
%TO.N,Col8*%
X180368350Y-87544500D03*
X182525050Y-87544500D03*
X179984150Y-104289600D03*
X183979250Y-110982100D03*
X186800850Y-67618600D03*
%TO.N,Col7*%
X159595950Y-86568900D03*
X161472250Y-86851700D03*
%TO.N,Col6*%
X275866550Y-84408100D03*
X148170250Y-106868700D03*
X145219250Y-104691400D03*
%TO.N,Col5*%
X128047850Y-110982100D03*
X271108450Y-83709800D03*
X123914050Y-106212800D03*
%TO.N,Col4*%
X108094350Y-91814600D03*
%TO.N,Col3*%
X85364050Y-71591000D03*
%TO.N,Col2*%
X252843650Y-71231400D03*
X64690050Y-72607100D03*
%TO.N,Col1*%
X46767350Y-70917600D03*
X44565650Y-68495000D03*
X43074450Y-67489500D03*
%TO.N,Col0*%
X18763150Y-65914600D03*
X24175250Y-72607100D03*
%TO.N,GND*%
X255322050Y-63562900D03*
X250147250Y-77926400D03*
X259130250Y-92117800D03*
X254034250Y-85158300D03*
%TO.N,Bat*%
X250521050Y-75551700D03*
%TO.N,Row3*%
X260683350Y-79650400D03*
X109089350Y-126142700D03*
X95396950Y-125852100D03*
%TO.N,Row2*%
X88750350Y-107383200D03*
X201468950Y-108236900D03*
X67163050Y-107394900D03*
X161403150Y-107593800D03*
X146062750Y-107593800D03*
X183961550Y-107922000D03*
X104775050Y-107678200D03*
X50685450Y-107394900D03*
X31630950Y-107394900D03*
X220850050Y-108236900D03*
X238581550Y-107584300D03*
%TO.N,Net-(D24-A)*%
X247641450Y-82134300D03*
X246893350Y-80778100D03*
%TO.N,Row1*%
X100670250Y-88105500D03*
X46351350Y-88105500D03*
X27659250Y-88105500D03*
X81621050Y-88123200D03*
X195798850Y-88408800D03*
X214515150Y-88174700D03*
X233699950Y-88174700D03*
X119716250Y-88105500D03*
X138756350Y-88068400D03*
X160067250Y-89150500D03*
X176834650Y-89323000D03*
X65105250Y-88123200D03*
%TO.N,Row0*%
X60283350Y-69473300D03*
X43751850Y-69808000D03*
X79271250Y-69387600D03*
X114807450Y-69387600D03*
X133859350Y-69387600D03*
X171946250Y-69387600D03*
X191013150Y-69387600D03*
X95250050Y-69387600D03*
X152896250Y-69387600D03*
X210033450Y-69387600D03*
X229096250Y-69387600D03*
%TD*%
D20*
%TO.N,Net-(D49-K)*%
X257331250Y-73818700D02*
X257331250Y-73018600D01*
X256083550Y-71770900D02*
X256083550Y-71589300D01*
X257331250Y-73018600D02*
X256083550Y-71770900D01*
X257331250Y-73818700D02*
X257331250Y-74618800D01*
X257331250Y-78581200D02*
X257331250Y-77781100D01*
X257331250Y-74618800D02*
X257331250Y-77781100D01*
%TO.N,Net-(BT2-+)*%
X253781250Y-73818700D02*
X254756350Y-73818700D01*
X255447350Y-73818700D02*
X256062350Y-74433700D01*
X254756350Y-73818700D02*
X255447350Y-73818700D01*
%TO.N,Net-(BT1-+)*%
X255593550Y-78581200D02*
X261252850Y-84240500D01*
X253781250Y-78581200D02*
X255593550Y-78581200D01*
%TO.N,Col11*%
X250106450Y-65349400D02*
X247900850Y-67555000D01*
X261970150Y-65349400D02*
X250106450Y-65349400D01*
X263898950Y-67278200D02*
X261970150Y-65349400D01*
%TO.N,Col10*%
X238341850Y-67555000D02*
X223815650Y-67555000D01*
X241158650Y-64738200D02*
X238341850Y-67555000D01*
X263898950Y-64738200D02*
X241158650Y-64738200D01*
%TO.N,Col8*%
X179984150Y-106987000D02*
X183979250Y-110982100D01*
X179984150Y-104289600D02*
X179984150Y-106987000D01*
X220070450Y-67618600D02*
X186800850Y-67618600D01*
X222202350Y-65486700D02*
X220070450Y-67618600D01*
X231880250Y-65486700D02*
X222202350Y-65486700D01*
X234501550Y-62865400D02*
X231880250Y-65486700D01*
X235789750Y-62865400D02*
X234501550Y-62865400D01*
X237798750Y-60856400D02*
X235789750Y-62865400D01*
X257620750Y-60856400D02*
X237798750Y-60856400D01*
X263898950Y-54578200D02*
X257620750Y-60856400D01*
X180368350Y-87544500D02*
X182525050Y-87544500D01*
%TO.N,Col7*%
X161472250Y-86810700D02*
X161472250Y-86851700D01*
X159837750Y-86810700D02*
X159595950Y-86568900D01*
X161472250Y-86810700D02*
X159837750Y-86810700D01*
X270968150Y-82518200D02*
X279118950Y-82518200D01*
X266675650Y-86810700D02*
X270968150Y-82518200D01*
X161472250Y-86810700D02*
X266675650Y-86810700D01*
%TO.N,Col6*%
X148170250Y-105654500D02*
X148170250Y-106868700D01*
X146182350Y-105654500D02*
X145219250Y-104691400D01*
X148170250Y-105654500D02*
X146182350Y-105654500D01*
X272743650Y-87531000D02*
X275866550Y-84408100D01*
X268822350Y-87531000D02*
X272743650Y-87531000D01*
X265637850Y-90715500D02*
X268822350Y-87531000D01*
X166897550Y-90715500D02*
X265637850Y-90715500D01*
X151958550Y-105654500D02*
X166897550Y-90715500D01*
X148170250Y-105654500D02*
X151958550Y-105654500D01*
%TO.N,Col5*%
X126234650Y-108533400D02*
X123914050Y-106212800D01*
X128047850Y-108533400D02*
X126234650Y-108533400D01*
X128047850Y-110982100D02*
X128047850Y-108533400D01*
X264770050Y-90048200D02*
X271108450Y-83709800D01*
X165171750Y-90048200D02*
X264770050Y-90048200D01*
X153841350Y-101378600D02*
X165171750Y-90048200D01*
X147772250Y-101378600D02*
X153841350Y-101378600D01*
X145418050Y-103732800D02*
X147772250Y-101378600D01*
X138119650Y-103732800D02*
X145418050Y-103732800D01*
X133319050Y-108533400D02*
X138119650Y-103732800D01*
X128047850Y-108533400D02*
X133319050Y-108533400D01*
%TO.N,Col4*%
X109182950Y-90726000D02*
X108094350Y-91814600D01*
X141975650Y-90726000D02*
X109182950Y-90726000D01*
X146895950Y-85805700D02*
X141975650Y-90726000D01*
X162330750Y-85805700D02*
X146895950Y-85805700D01*
X162881450Y-86356400D02*
X162330750Y-85805700D01*
X262254750Y-86356400D02*
X162881450Y-86356400D01*
X273712950Y-74898200D02*
X262254750Y-86356400D01*
X279118950Y-74898200D02*
X273712950Y-74898200D01*
%TO.N,Col3*%
X278031750Y-73445400D02*
X279118950Y-72358200D01*
X259011250Y-73445400D02*
X278031750Y-73445400D01*
X256404250Y-70838400D02*
X259011250Y-73445400D01*
X255808550Y-70838400D02*
X256404250Y-70838400D01*
X254690450Y-71956500D02*
X255808550Y-70838400D01*
X252543350Y-71956500D02*
X254690450Y-71956500D01*
X252177850Y-71591000D02*
X252543350Y-71956500D01*
X85364050Y-71591000D02*
X252177850Y-71591000D01*
%TO.N,Col2*%
X66458650Y-70838500D02*
X64690050Y-72607100D01*
X252450750Y-70838500D02*
X66458650Y-70838500D01*
X252843650Y-71231400D02*
X252450750Y-70838500D01*
%TO.N,Col1*%
X44079950Y-68495000D02*
X43074450Y-67489500D01*
X44565650Y-68495000D02*
X44079950Y-68495000D01*
X47296650Y-70388300D02*
X46767350Y-70917600D01*
X256590750Y-70388300D02*
X47296650Y-70388300D01*
X257122550Y-70920100D02*
X256590750Y-70388300D01*
X275477050Y-70920100D02*
X257122550Y-70920100D01*
X279118950Y-67278200D02*
X275477050Y-70920100D01*
%TO.N,Col0*%
X21923950Y-69075400D02*
X24175250Y-69075400D01*
X18763150Y-65914600D02*
X21923950Y-69075400D01*
X24175250Y-69075400D02*
X24175250Y-72607100D01*
X44120650Y-69075400D02*
X24175250Y-69075400D01*
X44306550Y-69261300D02*
X44120650Y-69075400D01*
X45779850Y-69261300D02*
X44306550Y-69261300D01*
X46654150Y-68387000D02*
X45779850Y-69261300D01*
X275470150Y-68387000D02*
X46654150Y-68387000D01*
X279118950Y-64738200D02*
X275470150Y-68387000D01*
D21*
%TO.N,GND*%
X250147250Y-79065800D02*
X253175050Y-82093600D01*
X250147250Y-77926400D02*
X250147250Y-79065800D01*
X253175050Y-83343700D02*
X253175050Y-82093600D01*
X253469750Y-84593800D02*
X253175050Y-84593800D01*
X254034250Y-85158300D02*
X253469750Y-84593800D01*
X253175050Y-83343700D02*
X253175050Y-84593800D01*
X269729350Y-115473100D02*
X271462550Y-117206300D01*
X269729350Y-96116600D02*
X269729350Y-115473100D01*
X270595950Y-96116600D02*
X269729350Y-96116600D01*
X271462550Y-95250000D02*
X270595950Y-96116600D01*
X263129050Y-96116600D02*
X259130250Y-92117800D01*
X269729350Y-96116600D02*
X263129050Y-96116600D01*
X256686750Y-62198200D02*
X255322050Y-63562900D01*
X263898950Y-62198200D02*
X256686750Y-62198200D01*
D20*
%TO.N,Bat*%
X257175050Y-83343700D02*
X255849950Y-83343700D01*
X250521050Y-77274700D02*
X250521050Y-75551700D01*
X255849950Y-82603600D02*
X250521050Y-77274700D01*
X255849950Y-83343700D02*
X255849950Y-82603600D01*
X277848950Y-53308200D02*
X279118950Y-52038200D01*
X253047950Y-53308200D02*
X277848950Y-53308200D01*
X252412550Y-53943600D02*
X253047950Y-53308200D01*
X252412550Y-54768700D02*
X252412550Y-53943600D01*
%TO.N,Row3*%
X261686750Y-79650400D02*
X260683350Y-79650400D01*
X263898950Y-77438200D02*
X261686750Y-79650400D01*
X108798750Y-125852100D02*
X95396950Y-125852100D01*
X109089350Y-126142700D02*
X108798750Y-125852100D01*
%TO.N,Row2*%
X89045350Y-107678200D02*
X88750350Y-107383200D01*
X104775050Y-107678200D02*
X89045350Y-107678200D01*
X146062750Y-107593800D02*
X161403150Y-107593800D01*
X67174750Y-107383200D02*
X67163050Y-107394900D01*
X88750350Y-107383200D02*
X67174750Y-107383200D01*
X67163050Y-107394900D02*
X50685450Y-107394900D01*
X50685450Y-107394900D02*
X31630950Y-107394900D01*
X201154050Y-107922000D02*
X201468950Y-108236900D01*
X183961550Y-107922000D02*
X201154050Y-107922000D01*
X220850050Y-108236900D02*
X201468950Y-108236900D01*
X221502650Y-107584300D02*
X220850050Y-108236900D01*
X238581550Y-107584300D02*
X221502650Y-107584300D01*
%TO.N,Net-(D24-A)*%
X247641450Y-81526200D02*
X247641450Y-82134300D01*
X246893350Y-80778100D02*
X247641450Y-81526200D01*
%TO.N,Row1*%
X214515150Y-88174700D02*
X233699950Y-88174700D01*
X100670250Y-88105500D02*
X119716250Y-88105500D01*
X119753350Y-88068400D02*
X138756350Y-88068400D01*
X119716250Y-88105500D02*
X119753350Y-88068400D01*
X176662150Y-89150500D02*
X160067250Y-89150500D01*
X176834650Y-89323000D02*
X176662150Y-89150500D01*
X214281050Y-88408800D02*
X195798850Y-88408800D01*
X214515150Y-88174700D02*
X214281050Y-88408800D01*
X177748850Y-88408800D02*
X176834650Y-89323000D01*
X195798850Y-88408800D02*
X177748850Y-88408800D01*
X81638750Y-88105500D02*
X81621050Y-88123200D01*
X100670250Y-88105500D02*
X81638750Y-88105500D01*
X81621050Y-88123200D02*
X65105250Y-88123200D01*
X27659250Y-88105500D02*
X46351350Y-88105500D01*
X65087550Y-88105500D02*
X65105250Y-88123200D01*
X46351350Y-88105500D02*
X65087550Y-88105500D01*
%TO.N,Row0*%
X59948650Y-69808000D02*
X60283350Y-69473300D01*
X43751850Y-69808000D02*
X59948650Y-69808000D01*
X79185550Y-69473300D02*
X79271250Y-69387600D01*
X60283350Y-69473300D02*
X79185550Y-69473300D01*
X95250050Y-69387600D02*
X79271250Y-69387600D01*
X114807450Y-69387600D02*
X95250050Y-69387600D01*
X114807450Y-69387600D02*
X133859350Y-69387600D01*
X133859350Y-69387600D02*
X152896250Y-69387600D01*
X171946250Y-69387600D02*
X152896250Y-69387600D01*
X171946250Y-69387600D02*
X191013150Y-69387600D01*
X191013150Y-69387600D02*
X210033450Y-69387600D01*
X210033450Y-69387600D02*
X229096250Y-69387600D01*
X263468350Y-69387600D02*
X263898950Y-69818200D01*
X229096250Y-69387600D02*
X263468350Y-69387600D01*
%TD*%
M02*
