M48
; DRILL file {KiCad 7.0.1} date Sun Apr  2 20:01:54 2023
; FORMAT={-:-/ absolute / metric / decimal}
; #@! TF.CreationDate,2023-04-02T20:01:54+09:00
; #@! TF.GenerationSoftware,Kicad,Pcbnew,7.0.1
; #@! TF.FileFunction,NonPlated,1,2,NPTH
FMAT,2
METRIC
; #@! TA.AperFunction,NonPlated,NPTH,ComponentDrill
T1C1.700
; #@! TA.AperFunction,NonPlated,NPTH,ComponentDrill
T2C2.000
; #@! TA.AperFunction,NonPlated,NPTH,ComponentDrill
T3C3.000
; #@! TA.AperFunction,NonPlated,NPTH,ComponentDrill
T4C4.000
%
G90
G05
T1
X20.694Y-59.531
X25.456Y-78.581
X30.219Y-97.631
X31.694Y-59.531
X34.981Y-116.681
X36.456Y-78.581
X39.744Y-59.531
X41.219Y-97.631
X44.506Y-78.581
X45.981Y-116.681
X49.269Y-97.631
X50.744Y-59.531
X54.031Y-116.681
X55.506Y-78.581
X58.794Y-59.531
X60.269Y-97.631
X63.556Y-78.581
X65.031Y-116.681
X68.319Y-97.631
X69.794Y-59.531
X73.081Y-116.681
X74.556Y-78.581
X77.844Y-59.531
X79.319Y-97.631
X82.606Y-78.581
X84.081Y-116.681
X87.369Y-97.631
X88.844Y-59.531
X92.131Y-116.681
X93.606Y-78.581
X96.894Y-59.531
X98.369Y-97.631
X101.656Y-78.581
X103.131Y-116.681
X106.419Y-97.631
X107.894Y-59.531
X111.181Y-116.681
X112.656Y-78.581
X115.944Y-59.531
X117.419Y-97.631
X120.706Y-78.581
X122.181Y-116.681
X125.469Y-97.631
X126.944Y-59.531
X130.231Y-116.681
X131.706Y-78.581
X134.994Y-59.531
X136.469Y-97.631
X139.756Y-78.581
X141.231Y-116.681
X144.519Y-97.631
X145.994Y-59.531
X149.281Y-116.681
X150.756Y-78.581
X154.044Y-59.531
X155.519Y-97.631
X158.806Y-78.581
X160.281Y-116.681
X163.569Y-97.631
X165.044Y-59.531
X168.331Y-116.681
X169.806Y-78.581
X173.094Y-59.531
X174.569Y-97.631
X177.856Y-78.581
X179.331Y-116.681
X182.619Y-97.631
X184.094Y-59.531
X187.381Y-116.681
X188.856Y-78.581
X192.144Y-59.531
X193.619Y-97.631
X196.906Y-78.581
X198.381Y-116.681
X201.669Y-97.631
X203.144Y-59.531
X206.431Y-116.681
X207.906Y-78.581
X211.194Y-59.531
X212.669Y-97.631
X215.956Y-78.581
X217.431Y-116.681
X220.719Y-97.631
X222.194Y-59.531
X225.481Y-116.681
X226.956Y-78.581
X230.244Y-59.531
X231.719Y-97.631
X235.006Y-78.581
X236.481Y-116.681
X239.769Y-97.631
X241.244Y-59.531
X244.531Y-116.681
X246.006Y-78.581
X250.769Y-97.631
X255.531Y-116.681
T2
X21.114Y-59.531
X25.876Y-78.581
X30.639Y-97.631
X31.274Y-59.531
X35.401Y-116.681
X36.036Y-78.581
X40.164Y-59.531
X40.799Y-97.631
X44.926Y-78.581
X45.561Y-116.681
X49.689Y-97.631
X50.324Y-59.531
X54.451Y-116.681
X55.086Y-78.581
X59.214Y-59.531
X59.849Y-97.631
X63.976Y-78.581
X64.611Y-116.681
X68.739Y-97.631
X69.374Y-59.531
X73.501Y-116.681
X74.136Y-78.581
X78.264Y-59.531
X78.899Y-97.631
X83.026Y-78.581
X83.661Y-116.681
X87.789Y-97.631
X88.424Y-59.531
X92.551Y-116.681
X93.186Y-78.581
X97.314Y-59.531
X97.949Y-97.631
X102.076Y-78.581
X102.711Y-116.681
X106.839Y-97.631
X107.474Y-59.531
X111.601Y-116.681
X112.236Y-78.581
X116.364Y-59.531
X116.999Y-97.631
X121.126Y-78.581
X121.761Y-116.681
X125.889Y-97.631
X126.524Y-59.531
X130.651Y-116.681
X131.286Y-78.581
X135.414Y-59.531
X136.049Y-97.631
X140.176Y-78.581
X140.811Y-116.681
X144.939Y-97.631
X145.574Y-59.531
X149.701Y-116.681
X150.336Y-78.581
X154.464Y-59.531
X155.099Y-97.631
X159.226Y-78.581
X159.861Y-116.681
X163.989Y-97.631
X164.624Y-59.531
X168.751Y-116.681
X169.386Y-78.581
X173.514Y-59.531
X174.149Y-97.631
X178.276Y-78.581
X178.911Y-116.681
X183.039Y-97.631
X183.674Y-59.531
X187.801Y-116.681
X188.436Y-78.581
X192.564Y-59.531
X193.199Y-97.631
X197.326Y-78.581
X197.961Y-116.681
X202.089Y-97.631
X202.724Y-59.531
X206.851Y-116.681
X207.486Y-78.581
X211.614Y-59.531
X212.249Y-97.631
X216.376Y-78.581
X217.011Y-116.681
X221.139Y-97.631
X221.774Y-59.531
X225.901Y-116.681
X226.536Y-78.581
X230.664Y-59.531
X231.299Y-97.631
X235.426Y-78.581
X236.061Y-116.681
X240.189Y-97.631
X240.824Y-59.531
X244.951Y-116.681
X245.586Y-78.581
X250.349Y-97.631
X255.111Y-116.681
T3
X21.194Y-63.231
X22.384Y-56.991
X25.956Y-82.281
X26.194Y-65.431
X27.146Y-76.041
X28.734Y-54.451
X30.719Y-101.331
X30.956Y-84.481
X31.909Y-95.091
X33.496Y-73.501
X35.481Y-120.381
X35.719Y-103.531
X36.671Y-114.141
X38.259Y-92.551
X40.244Y-63.231
X40.481Y-122.581
X41.434Y-56.991
X43.021Y-111.601
X45.006Y-82.281
X45.244Y-65.431
X46.196Y-76.041
X47.784Y-54.451
X49.769Y-101.331
X50.006Y-84.481
X50.959Y-95.091
X52.546Y-73.501
X54.531Y-120.381
X54.769Y-103.531
X55.721Y-114.141
X57.309Y-92.551
X59.294Y-63.231
X59.531Y-122.581
X60.484Y-56.991
X62.071Y-111.601
X64.056Y-82.281
X64.294Y-65.431
X65.246Y-76.041
X66.834Y-54.451
X68.819Y-101.331
X69.056Y-84.481
X70.009Y-95.091
X71.596Y-73.501
X73.581Y-120.381
X73.819Y-103.531
X74.771Y-114.141
X76.359Y-92.551
X78.344Y-63.231
X78.581Y-122.581
X79.534Y-56.991
X81.121Y-111.601
X83.106Y-82.281
X83.344Y-65.431
X84.296Y-76.041
X85.884Y-54.451
X87.869Y-101.331
X88.106Y-84.481
X89.059Y-95.091
X90.646Y-73.501
X92.631Y-120.381
X92.869Y-103.531
X93.821Y-114.141
X95.409Y-92.551
X97.394Y-63.231
X97.631Y-122.581
X98.584Y-56.991
X100.171Y-111.601
X102.156Y-82.281
X102.394Y-65.431
X103.346Y-76.041
X104.934Y-54.451
X106.919Y-101.331
X107.156Y-84.481
X108.109Y-95.091
X109.696Y-73.501
X111.681Y-120.381
X111.919Y-103.531
X112.871Y-114.141
X114.459Y-92.551
X116.444Y-63.231
X116.681Y-122.581
X117.634Y-56.991
X119.221Y-111.601
X121.206Y-82.281
X121.444Y-65.431
X122.396Y-76.041
X123.984Y-54.451
X125.969Y-101.331
X126.206Y-84.481
X127.159Y-95.091
X128.746Y-73.501
X130.731Y-120.381
X130.969Y-103.531
X131.921Y-114.141
X133.509Y-92.551
X135.494Y-63.231
X135.731Y-122.581
X136.684Y-56.991
X138.271Y-111.601
X140.256Y-82.281
X140.494Y-65.431
X141.446Y-76.041
X143.034Y-54.451
X145.019Y-101.331
X145.256Y-84.481
X146.209Y-95.091
X147.796Y-73.501
X149.781Y-120.381
X150.019Y-103.531
X150.971Y-114.141
X152.559Y-92.551
X154.544Y-63.231
X154.781Y-122.581
X155.734Y-56.991
X157.321Y-111.601
X159.306Y-82.281
X159.544Y-65.431
X160.496Y-76.041
X162.084Y-54.451
X164.069Y-101.331
X164.306Y-84.481
X165.259Y-95.091
X166.846Y-73.501
X168.831Y-120.381
X169.069Y-103.531
X170.021Y-114.141
X171.609Y-92.551
X173.594Y-63.231
X173.831Y-122.581
X174.784Y-56.991
X176.371Y-111.601
X178.356Y-82.281
X178.594Y-65.431
X179.546Y-76.041
X181.134Y-54.451
X183.119Y-101.331
X183.356Y-84.481
X184.309Y-95.091
X185.896Y-73.501
X187.881Y-120.381
X188.119Y-103.531
X189.071Y-114.141
X190.659Y-92.551
X192.644Y-63.231
X192.881Y-122.581
X193.834Y-56.991
X195.421Y-111.601
X197.406Y-82.281
X197.644Y-65.431
X198.596Y-76.041
X200.184Y-54.451
X202.169Y-101.331
X202.406Y-84.481
X203.359Y-95.091
X204.946Y-73.501
X206.931Y-120.381
X207.169Y-103.531
X208.121Y-114.141
X209.709Y-92.551
X211.694Y-63.231
X211.931Y-122.581
X212.884Y-56.991
X214.471Y-111.601
X216.456Y-82.281
X216.694Y-65.431
X217.646Y-76.041
X219.234Y-54.451
X221.219Y-101.331
X221.456Y-84.481
X222.409Y-95.091
X223.996Y-73.501
X225.981Y-120.381
X226.219Y-103.531
X227.171Y-114.141
X228.759Y-92.551
X230.744Y-63.231
X230.981Y-122.581
X231.934Y-56.991
X233.521Y-111.601
X235.506Y-82.281
X235.744Y-65.431
X236.696Y-76.041
X238.284Y-54.451
X240.269Y-101.331
X240.506Y-84.481
X241.459Y-95.091
X243.046Y-73.501
X245.031Y-120.381
X245.269Y-103.531
X246.221Y-114.141
X247.809Y-92.551
X250.031Y-122.581
X252.571Y-111.601
T4
X26.194Y-59.531
X30.956Y-78.581
X35.719Y-97.631
X40.481Y-116.681
X45.244Y-59.531
X50.006Y-78.581
X54.769Y-97.631
X59.531Y-116.681
X64.294Y-59.531
X69.056Y-78.581
X73.819Y-97.631
X78.581Y-116.681
X83.344Y-59.531
X88.106Y-78.581
X92.869Y-97.631
X97.631Y-116.681
X102.394Y-59.531
X107.156Y-78.581
X111.919Y-97.631
X116.681Y-116.681
X121.444Y-59.531
X126.206Y-78.581
X130.969Y-97.631
X135.731Y-116.681
X140.494Y-59.531
X145.256Y-78.581
X150.019Y-97.631
X154.781Y-116.681
X159.544Y-59.531
X164.306Y-78.581
X169.069Y-97.631
X173.831Y-116.681
X178.594Y-59.531
X183.356Y-78.581
X188.119Y-97.631
X192.881Y-116.681
X197.644Y-59.531
X202.406Y-78.581
X207.169Y-97.631
X211.931Y-116.681
X216.694Y-59.531
X221.456Y-78.581
X226.219Y-97.631
X230.981Y-116.681
X235.744Y-59.531
X240.506Y-78.581
X245.269Y-97.631
X250.031Y-116.681
T0
M30
