M48
; DRILL file {KiCad 7.0.1} date Sun Apr  2 20:01:54 2023
; FORMAT={-:-/ absolute / metric / decimal}
; #@! TF.CreationDate,2023-04-02T20:01:54+09:00
; #@! TF.GenerationSoftware,Kicad,Pcbnew,7.0.1
; #@! TF.FileFunction,Plated,1,2,PTH
FMAT,2
METRIC
; #@! TA.AperFunction,Plated,PTH,ViaDrill
T1C0.400
; #@! TA.AperFunction,Plated,PTH,ComponentDrill
T2C0.500
; #@! TA.AperFunction,Plated,PTH,ComponentDrill
T3C0.800
; #@! TA.AperFunction,Plated,PTH,ComponentDrill
T4C0.813
; #@! TA.AperFunction,Plated,PTH,ComponentDrill
T5C1.300
%
G90
G05
T1
X18.763Y-65.915
X24.175Y-72.607
X27.659Y-88.105
X31.631Y-107.395
X43.074Y-67.489
X43.752Y-69.808
X44.566Y-68.495
X46.351Y-88.105
X46.767Y-70.918
X50.685Y-107.395
X60.283Y-69.473
X64.69Y-72.607
X65.105Y-88.123
X67.163Y-107.395
X79.271Y-69.388
X81.621Y-88.123
X85.364Y-71.591
X88.75Y-107.383
X95.25Y-69.388
X95.397Y-125.852
X100.67Y-88.105
X104.775Y-107.678
X108.094Y-91.815
X109.089Y-126.143
X114.807Y-69.388
X119.716Y-88.105
X123.914Y-106.213
X128.048Y-110.982
X133.859Y-69.388
X138.756Y-88.068
X145.219Y-104.691
X146.063Y-107.594
X148.17Y-106.869
X152.896Y-69.388
X159.596Y-86.569
X160.067Y-89.15
X161.403Y-107.594
X161.472Y-86.852
X171.946Y-69.388
X176.835Y-89.323
X179.984Y-104.29
X180.368Y-87.544
X182.525Y-87.544
X183.962Y-107.922
X183.979Y-110.982
X186.801Y-67.619
X191.013Y-69.388
X195.799Y-88.409
X201.469Y-108.237
X210.033Y-69.388
X214.515Y-88.175
X220.85Y-108.237
X223.816Y-67.555
X229.096Y-69.388
X233.7Y-88.175
X238.582Y-107.584
X246.893Y-80.778
X247.641Y-82.134
X247.901Y-67.555
X250.147Y-77.926
X250.521Y-75.552
X252.844Y-71.231
X254.034Y-85.158
X255.322Y-63.563
X256.062Y-74.434
X256.084Y-71.589
X259.13Y-92.118
X260.683Y-79.65
X261.253Y-84.24
X271.108Y-83.71
X275.867Y-84.408
T4
X257.175Y-94.254
X257.175Y-96.794
X263.899Y-52.038
X263.899Y-54.578
X263.899Y-57.118
X263.899Y-59.658
X263.899Y-62.198
X263.899Y-64.738
X263.899Y-67.278
X263.899Y-69.818
X263.899Y-72.358
X263.899Y-74.898
X263.899Y-77.438
X263.899Y-79.978
X263.899Y-82.518
X279.119Y-52.038
X279.119Y-54.578
X279.119Y-57.118
X279.119Y-59.658
X279.119Y-62.198
X279.119Y-64.738
X279.119Y-67.278
X279.119Y-69.818
X279.119Y-72.358
X279.119Y-74.898
X279.119Y-77.438
X279.119Y-79.978
X279.119Y-82.518
T5
X251.544Y-66.675
X258.044Y-66.675
T2
G00X252.263Y-54.769
M15
G01X252.563Y-54.769
M16
G05
G00X254.763Y-54.769
M15
G01X255.063Y-54.769
M16
G05
G00X257.263Y-54.769
M15
G01X257.563Y-54.769
M16
G05
T3
G00X271.838Y-86.25
M15
G01X271.088Y-86.25
M16
G05
G00X271.838Y-104.25
M15
G01X271.088Y-104.25
M16
G05
G00X271.838Y-108.206
M15
G01X271.088Y-108.206
M16
G05
G00X271.838Y-126.206
M15
G01X271.088Y-126.206
M16
G05
T0
M30
