%TF.GenerationSoftware,KiCad,Pcbnew,7.0.1*%
%TF.CreationDate,2023-04-02T20:01:42+09:00*%
%TF.ProjectId,first48,66697273-7434-4382-9e6b-696361645f70,rev?*%
%TF.SameCoordinates,Original*%
%TF.FileFunction,Soldermask,Bot*%
%TF.FilePolarity,Negative*%
%FSLAX46Y46*%
G04 Gerber Fmt 4.6, Leading zero omitted, Abs format (unit mm)*
G04 Created by KiCad (PCBNEW 7.0.1) date 2023-04-02 20:01:42*
%MOMM*%
%LPD*%
G01*
G04 APERTURE LIST*
%ADD10C,1.900000*%
%ADD11C,2.000000*%
%ADD12C,3.100000*%
%ADD13C,3.000000*%
%ADD14C,4.000000*%
%ADD15R,3.000000X3.500000*%
%ADD16R,3.300000X3.000000*%
%ADD17C,1.524000*%
%ADD18O,1.300000X1.000000*%
%ADD19O,2.550000X1.800000*%
%ADD20R,1.300000X0.950000*%
G04 APERTURE END LIST*
D10*
%TO.C,SW5*%
X96893750Y-59531200D03*
D11*
X97313750Y-59531200D03*
D12*
X97393750Y-63231200D03*
D13*
X98583750Y-56991200D03*
D14*
X102393750Y-59531200D03*
D12*
X102393750Y-65431200D03*
D13*
X104933750Y-54451200D03*
D11*
X107473750Y-59531200D03*
D10*
X107893750Y-59531200D03*
D15*
X94043750Y-63231200D03*
D16*
X94943750Y-56951200D03*
D15*
X105943750Y-65431200D03*
D16*
X108543750Y-54411200D03*
%TD*%
D10*
%TO.C,SW3*%
X58793750Y-59531200D03*
D11*
X59213750Y-59531200D03*
D12*
X59293750Y-63231200D03*
D13*
X60483750Y-56991200D03*
D14*
X64293750Y-59531200D03*
D12*
X64293750Y-65431200D03*
D13*
X66833750Y-54451200D03*
D11*
X69373750Y-59531200D03*
D10*
X69793750Y-59531200D03*
D15*
X55943750Y-63231200D03*
D16*
X56843750Y-56951200D03*
D15*
X67843750Y-65431200D03*
D16*
X70443750Y-54411200D03*
%TD*%
D10*
%TO.C,SW25*%
X30218750Y-97631200D03*
D11*
X30638750Y-97631200D03*
D12*
X30718750Y-101331200D03*
D13*
X31908750Y-95091200D03*
D14*
X35718750Y-97631200D03*
D12*
X35718750Y-103531200D03*
D13*
X38258750Y-92551200D03*
D11*
X40798750Y-97631200D03*
D10*
X41218750Y-97631200D03*
D15*
X27368750Y-101331200D03*
D16*
X28268750Y-95051200D03*
D15*
X39268750Y-103531200D03*
D16*
X41868750Y-92511200D03*
%TD*%
D10*
%TO.C,SW27*%
X68318750Y-97631200D03*
D11*
X68738750Y-97631200D03*
D12*
X68818750Y-101331200D03*
D13*
X70008750Y-95091200D03*
D14*
X73818750Y-97631200D03*
D12*
X73818750Y-103531200D03*
D13*
X76358750Y-92551200D03*
D11*
X78898750Y-97631200D03*
D10*
X79318750Y-97631200D03*
D15*
X65468750Y-101331200D03*
D16*
X66368750Y-95051200D03*
D15*
X77368750Y-103531200D03*
D16*
X79968750Y-92511200D03*
%TD*%
%TO.C,SW38*%
X65681250Y-111561200D03*
D15*
X63081250Y-122581200D03*
D16*
X52081250Y-114101200D03*
D15*
X51181250Y-120381200D03*
D10*
X65031250Y-116681200D03*
D11*
X64611250Y-116681200D03*
D13*
X62071250Y-111601200D03*
D12*
X59531250Y-122581200D03*
D14*
X59531250Y-116681200D03*
D13*
X55721250Y-114141200D03*
D12*
X54531250Y-120381200D03*
D11*
X54451250Y-116681200D03*
D10*
X54031250Y-116681200D03*
%TD*%
D17*
%TO.C,U1*%
X263898950Y-54578200D03*
X263898950Y-57118200D03*
X263898950Y-59658200D03*
X263898950Y-62198200D03*
X263898950Y-64738200D03*
X263898950Y-67278200D03*
X263898950Y-69818200D03*
X263898950Y-72358200D03*
X263898950Y-74898200D03*
X263898950Y-77438200D03*
X263898950Y-79978200D03*
X263898950Y-82518200D03*
X279118950Y-82518200D03*
X279118950Y-79978200D03*
X279118950Y-77438200D03*
X279118950Y-74898200D03*
X279118950Y-72358200D03*
X279118950Y-69818200D03*
X279118950Y-67278200D03*
X279118950Y-64738200D03*
X279118950Y-62198200D03*
X279118950Y-59658200D03*
X279118950Y-57118200D03*
X279118950Y-54578200D03*
X279118950Y-52038200D03*
X263898950Y-52038200D03*
%TD*%
D16*
%TO.C,SW19*%
X151406250Y-73461200D03*
D15*
X148806250Y-84481200D03*
D16*
X137806250Y-76001200D03*
D15*
X136906250Y-82281200D03*
D10*
X150756250Y-78581200D03*
D11*
X150336250Y-78581200D03*
D13*
X147796250Y-73501200D03*
D12*
X145256250Y-84481200D03*
D14*
X145256250Y-78581200D03*
D13*
X141446250Y-76041200D03*
D12*
X140256250Y-82281200D03*
D11*
X140176250Y-78581200D03*
D10*
X139756250Y-78581200D03*
%TD*%
%TO.C,SW11*%
X211193750Y-59531200D03*
D11*
X211613750Y-59531200D03*
D12*
X211693750Y-63231200D03*
D13*
X212883750Y-56991200D03*
D14*
X216693750Y-59531200D03*
D12*
X216693750Y-65431200D03*
D13*
X219233750Y-54451200D03*
D11*
X221773750Y-59531200D03*
D10*
X222193750Y-59531200D03*
D15*
X208343750Y-63231200D03*
D16*
X209243750Y-56951200D03*
D15*
X220243750Y-65431200D03*
D16*
X222843750Y-54411200D03*
%TD*%
%TO.C,SW21*%
X189506250Y-73461200D03*
D15*
X186906250Y-84481200D03*
D16*
X175906250Y-76001200D03*
D15*
X175006250Y-82281200D03*
D10*
X188856250Y-78581200D03*
D11*
X188436250Y-78581200D03*
D13*
X185896250Y-73501200D03*
D12*
X183356250Y-84481200D03*
D14*
X183356250Y-78581200D03*
D13*
X179546250Y-76041200D03*
D12*
X178356250Y-82281200D03*
D11*
X178276250Y-78581200D03*
D10*
X177856250Y-78581200D03*
%TD*%
%TO.C,SW7*%
X134993750Y-59531200D03*
D11*
X135413750Y-59531200D03*
D12*
X135493750Y-63231200D03*
D13*
X136683750Y-56991200D03*
D14*
X140493750Y-59531200D03*
D12*
X140493750Y-65431200D03*
D13*
X143033750Y-54451200D03*
D11*
X145573750Y-59531200D03*
D10*
X145993750Y-59531200D03*
D15*
X132143750Y-63231200D03*
D16*
X133043750Y-56951200D03*
D15*
X144043750Y-65431200D03*
D16*
X146643750Y-54411200D03*
%TD*%
D17*
%TO.C,J2*%
X257175050Y-96794000D03*
X257175050Y-94254000D03*
%TD*%
D10*
%TO.C,SW10*%
X192143750Y-59531200D03*
D11*
X192563750Y-59531200D03*
D12*
X192643750Y-63231200D03*
D13*
X193833750Y-56991200D03*
D14*
X197643750Y-59531200D03*
D12*
X197643750Y-65431200D03*
D13*
X200183750Y-54451200D03*
D11*
X202723750Y-59531200D03*
D10*
X203143750Y-59531200D03*
D15*
X189293750Y-63231200D03*
D16*
X190193750Y-56951200D03*
D15*
X201193750Y-65431200D03*
D16*
X203793750Y-54411200D03*
%TD*%
D10*
%TO.C,SW4*%
X77843750Y-59531200D03*
D11*
X78263750Y-59531200D03*
D12*
X78343750Y-63231200D03*
D13*
X79533750Y-56991200D03*
D14*
X83343750Y-59531200D03*
D12*
X83343750Y-65431200D03*
D13*
X85883750Y-54451200D03*
D11*
X88423750Y-59531200D03*
D10*
X88843750Y-59531200D03*
D15*
X74993750Y-63231200D03*
D16*
X75893750Y-56951200D03*
D15*
X86893750Y-65431200D03*
D16*
X89493750Y-54411200D03*
%TD*%
%TO.C,SW20*%
X170456250Y-73461200D03*
D15*
X167856250Y-84481200D03*
D16*
X156856250Y-76001200D03*
D15*
X155956250Y-82281200D03*
D10*
X169806250Y-78581200D03*
D11*
X169386250Y-78581200D03*
D13*
X166846250Y-73501200D03*
D12*
X164306250Y-84481200D03*
D14*
X164306250Y-78581200D03*
D13*
X160496250Y-76041200D03*
D12*
X159306250Y-82281200D03*
D11*
X159226250Y-78581200D03*
D10*
X158806250Y-78581200D03*
%TD*%
%TO.C,SW6*%
X115943750Y-59531200D03*
D11*
X116363750Y-59531200D03*
D12*
X116443750Y-63231200D03*
D13*
X117633750Y-56991200D03*
D14*
X121443750Y-59531200D03*
D12*
X121443750Y-65431200D03*
D13*
X123983750Y-54451200D03*
D11*
X126523750Y-59531200D03*
D10*
X126943750Y-59531200D03*
D15*
X113093750Y-63231200D03*
D16*
X113993750Y-56951200D03*
D15*
X124993750Y-65431200D03*
D16*
X127593750Y-54411200D03*
%TD*%
D18*
%TO.C,SW50*%
X252412550Y-54768700D03*
X254912550Y-54768700D03*
X257412550Y-54768700D03*
%TD*%
D16*
%TO.C,SW16*%
X94256250Y-73461200D03*
D15*
X91656250Y-84481200D03*
D16*
X80656250Y-76001200D03*
D15*
X79756250Y-82281200D03*
D10*
X93606250Y-78581200D03*
D11*
X93186250Y-78581200D03*
D13*
X90646250Y-73501200D03*
D12*
X88106250Y-84481200D03*
D14*
X88106250Y-78581200D03*
D13*
X84296250Y-76041200D03*
D12*
X83106250Y-82281200D03*
D11*
X83026250Y-78581200D03*
D10*
X82606250Y-78581200D03*
%TD*%
%TO.C,SW14*%
X44506250Y-78581200D03*
D11*
X44926250Y-78581200D03*
D12*
X45006250Y-82281200D03*
D13*
X46196250Y-76041200D03*
D14*
X50006250Y-78581200D03*
D12*
X50006250Y-84481200D03*
D13*
X52546250Y-73501200D03*
D11*
X55086250Y-78581200D03*
D10*
X55506250Y-78581200D03*
D15*
X41656250Y-82281200D03*
D16*
X42556250Y-76001200D03*
D15*
X53556250Y-84481200D03*
D16*
X56156250Y-73461200D03*
%TD*%
%TO.C,SW17*%
X113306250Y-73461200D03*
D15*
X110706250Y-84481200D03*
D16*
X99706250Y-76001200D03*
D15*
X98806250Y-82281200D03*
D10*
X112656250Y-78581200D03*
D11*
X112236250Y-78581200D03*
D13*
X109696250Y-73501200D03*
D12*
X107156250Y-84481200D03*
D14*
X107156250Y-78581200D03*
D13*
X103346250Y-76041200D03*
D12*
X102156250Y-82281200D03*
D11*
X102076250Y-78581200D03*
D10*
X101656250Y-78581200D03*
%TD*%
%TO.C,SW9*%
X173093750Y-59531200D03*
D11*
X173513750Y-59531200D03*
D12*
X173593750Y-63231200D03*
D13*
X174783750Y-56991200D03*
D14*
X178593750Y-59531200D03*
D12*
X178593750Y-65431200D03*
D13*
X181133750Y-54451200D03*
D11*
X183673750Y-59531200D03*
D10*
X184093750Y-59531200D03*
D15*
X170243750Y-63231200D03*
D16*
X171143750Y-56951200D03*
D15*
X182143750Y-65431200D03*
D16*
X184743750Y-54411200D03*
%TD*%
D11*
%TO.C,SW49*%
X258043750Y-66675000D03*
X251543750Y-66675000D03*
%TD*%
D16*
%TO.C,SW23*%
X227606250Y-73461200D03*
D15*
X225006250Y-84481200D03*
D16*
X214006250Y-76001200D03*
D15*
X213106250Y-82281200D03*
D10*
X226956250Y-78581200D03*
D11*
X226536250Y-78581200D03*
D13*
X223996250Y-73501200D03*
D12*
X221456250Y-84481200D03*
D14*
X221456250Y-78581200D03*
D13*
X217646250Y-76041200D03*
D12*
X216456250Y-82281200D03*
D11*
X216376250Y-78581200D03*
D10*
X215956250Y-78581200D03*
%TD*%
D19*
%TO.C,BT1*%
X271462550Y-108206300D03*
X271462550Y-126206300D03*
%TD*%
D10*
%TO.C,SW15*%
X63556250Y-78581200D03*
D11*
X63976250Y-78581200D03*
D12*
X64056250Y-82281200D03*
D13*
X65246250Y-76041200D03*
D14*
X69056250Y-78581200D03*
D12*
X69056250Y-84481200D03*
D13*
X71596250Y-73501200D03*
D11*
X74136250Y-78581200D03*
D10*
X74556250Y-78581200D03*
D15*
X60706250Y-82281200D03*
D16*
X61606250Y-76001200D03*
D15*
X72606250Y-84481200D03*
D16*
X75206250Y-73461200D03*
%TD*%
D10*
%TO.C,SW8*%
X154043750Y-59531200D03*
D11*
X154463750Y-59531200D03*
D12*
X154543750Y-63231200D03*
D13*
X155733750Y-56991200D03*
D14*
X159543750Y-59531200D03*
D12*
X159543750Y-65431200D03*
D13*
X162083750Y-54451200D03*
D11*
X164623750Y-59531200D03*
D10*
X165043750Y-59531200D03*
D15*
X151193750Y-63231200D03*
D16*
X152093750Y-56951200D03*
D15*
X163093750Y-65431200D03*
D16*
X165693750Y-54411200D03*
%TD*%
%TO.C,SW18*%
X132356250Y-73461200D03*
D15*
X129756250Y-84481200D03*
D16*
X118756250Y-76001200D03*
D15*
X117856250Y-82281200D03*
D10*
X131706250Y-78581200D03*
D11*
X131286250Y-78581200D03*
D13*
X128746250Y-73501200D03*
D12*
X126206250Y-84481200D03*
D14*
X126206250Y-78581200D03*
D13*
X122396250Y-76041200D03*
D12*
X121206250Y-82281200D03*
D11*
X121126250Y-78581200D03*
D10*
X120706250Y-78581200D03*
%TD*%
D16*
%TO.C,SW22*%
X208556250Y-73461200D03*
D15*
X205956250Y-84481200D03*
D16*
X194956250Y-76001200D03*
D15*
X194056250Y-82281200D03*
D10*
X207906250Y-78581200D03*
D11*
X207486250Y-78581200D03*
D13*
X204946250Y-73501200D03*
D12*
X202406250Y-84481200D03*
D14*
X202406250Y-78581200D03*
D13*
X198596250Y-76041200D03*
D12*
X197406250Y-82281200D03*
D11*
X197326250Y-78581200D03*
D10*
X196906250Y-78581200D03*
%TD*%
%TO.C,SW2*%
X39743750Y-59531200D03*
D11*
X40163750Y-59531200D03*
D12*
X40243750Y-63231200D03*
D13*
X41433750Y-56991200D03*
D14*
X45243750Y-59531200D03*
D12*
X45243750Y-65431200D03*
D13*
X47783750Y-54451200D03*
D11*
X50323750Y-59531200D03*
D10*
X50743750Y-59531200D03*
D15*
X36893750Y-63231200D03*
D16*
X37793750Y-56951200D03*
D15*
X48793750Y-65431200D03*
D16*
X51393750Y-54411200D03*
%TD*%
D10*
%TO.C,SW33*%
X182618750Y-97631200D03*
D11*
X183038750Y-97631200D03*
D12*
X183118750Y-101331200D03*
D13*
X184308750Y-95091200D03*
D14*
X188118750Y-97631200D03*
D12*
X188118750Y-103531200D03*
D13*
X190658750Y-92551200D03*
D11*
X193198750Y-97631200D03*
D10*
X193618750Y-97631200D03*
D15*
X179768750Y-101331200D03*
D16*
X180668750Y-95051200D03*
D15*
X191668750Y-103531200D03*
D16*
X194268750Y-92511200D03*
%TD*%
D20*
%TO.C,D29*%
X106550050Y-107156200D03*
X103000050Y-107156200D03*
%TD*%
%TO.C,D2*%
X39875050Y-69056200D03*
X36325050Y-69056200D03*
%TD*%
%TO.C,D43*%
X145862550Y-126206200D03*
X149412550Y-126206200D03*
%TD*%
%TO.C,D21*%
X174437550Y-90487500D03*
X177987550Y-90487500D03*
%TD*%
D10*
%TO.C,SW31*%
X144518750Y-97631200D03*
D11*
X144938750Y-97631200D03*
D12*
X145018750Y-101331200D03*
D13*
X146208750Y-95091200D03*
D14*
X150018750Y-97631200D03*
D12*
X150018750Y-103531200D03*
D13*
X152558750Y-92551200D03*
D11*
X155098750Y-97631200D03*
D10*
X155518750Y-97631200D03*
D15*
X141668750Y-101331200D03*
D16*
X142568750Y-95051200D03*
D15*
X153568750Y-103531200D03*
D16*
X156168750Y-92511200D03*
%TD*%
%TO.C,SW37*%
X46631250Y-111561200D03*
D15*
X44031250Y-122581200D03*
D16*
X33031250Y-114101200D03*
D15*
X32131250Y-120381200D03*
D10*
X45981250Y-116681200D03*
D11*
X45561250Y-116681200D03*
D13*
X43021250Y-111601200D03*
D12*
X40481250Y-122581200D03*
D14*
X40481250Y-116681200D03*
D13*
X36671250Y-114141200D03*
D12*
X35481250Y-120381200D03*
D11*
X35401250Y-116681200D03*
D10*
X34981250Y-116681200D03*
%TD*%
D16*
%TO.C,SW42*%
X141881250Y-111561200D03*
D15*
X139281250Y-122581200D03*
D16*
X128281250Y-114101200D03*
D15*
X127381250Y-120381200D03*
D10*
X141231250Y-116681200D03*
D11*
X140811250Y-116681200D03*
D13*
X138271250Y-111601200D03*
D12*
X135731250Y-122581200D03*
D14*
X135731250Y-116681200D03*
D13*
X131921250Y-114141200D03*
D12*
X130731250Y-120381200D03*
D11*
X130651250Y-116681200D03*
D10*
X130231250Y-116681200D03*
%TD*%
D20*
%TO.C,D19*%
X136496250Y-88106200D03*
X140046250Y-88106200D03*
%TD*%
%TO.C,D20*%
X155546250Y-88106200D03*
X159096250Y-88106200D03*
%TD*%
%TO.C,D12*%
X230375050Y-69056200D03*
X226825050Y-69056200D03*
%TD*%
D19*
%TO.C,BT2*%
X271462550Y-104250000D03*
X271462550Y-86250000D03*
%TD*%
D16*
%TO.C,SW40*%
X103781250Y-111561200D03*
D15*
X101181250Y-122581200D03*
D16*
X90181250Y-114101200D03*
D15*
X89281250Y-120381200D03*
D10*
X103131250Y-116681200D03*
D11*
X102711250Y-116681200D03*
D13*
X100171250Y-111601200D03*
D12*
X97631250Y-122581200D03*
D14*
X97631250Y-116681200D03*
D13*
X93821250Y-114141200D03*
D12*
X92631250Y-120381200D03*
D11*
X92551250Y-116681200D03*
D10*
X92131250Y-116681200D03*
%TD*%
D20*
%TO.C,D32*%
X163700050Y-107156200D03*
X160150050Y-107156200D03*
%TD*%
%TO.C,D47*%
X222062550Y-126206200D03*
X225612550Y-126206200D03*
%TD*%
%TO.C,D25*%
X30350050Y-107156200D03*
X26800050Y-107156200D03*
%TD*%
D10*
%TO.C,SW29*%
X106418750Y-97631200D03*
D11*
X106838750Y-97631200D03*
D12*
X106918750Y-101331200D03*
D13*
X108108750Y-95091200D03*
D14*
X111918750Y-97631200D03*
D12*
X111918750Y-103531200D03*
D13*
X114458750Y-92551200D03*
D11*
X116998750Y-97631200D03*
D10*
X117418750Y-97631200D03*
D15*
X103568750Y-101331200D03*
D16*
X104468750Y-95051200D03*
D15*
X115468750Y-103531200D03*
D16*
X118068750Y-92511200D03*
%TD*%
D20*
%TO.C,D11*%
X211325050Y-69056200D03*
X207775050Y-69056200D03*
%TD*%
%TO.C,D13*%
X22196250Y-88106200D03*
X25746250Y-88106200D03*
%TD*%
D16*
%TO.C,SW48*%
X256181250Y-111561200D03*
D15*
X253581250Y-122581200D03*
D16*
X242581250Y-114101200D03*
D15*
X241681250Y-120381200D03*
D10*
X255531250Y-116681200D03*
D11*
X255111250Y-116681200D03*
D13*
X252571250Y-111601200D03*
D12*
X250031250Y-122581200D03*
D14*
X250031250Y-116681200D03*
D13*
X246221250Y-114141200D03*
D12*
X245031250Y-120381200D03*
D11*
X244951250Y-116681200D03*
D10*
X244531250Y-116681200D03*
%TD*%
D16*
%TO.C,SW46*%
X218081250Y-111561200D03*
D15*
X215481250Y-122581200D03*
D16*
X204481250Y-114101200D03*
D15*
X203581250Y-120381200D03*
D10*
X217431250Y-116681200D03*
D11*
X217011250Y-116681200D03*
D13*
X214471250Y-111601200D03*
D12*
X211931250Y-122581200D03*
D14*
X211931250Y-116681200D03*
D13*
X208121250Y-114141200D03*
D12*
X206931250Y-120381200D03*
D11*
X206851250Y-116681200D03*
D10*
X206431250Y-116681200D03*
%TD*%
D20*
%TO.C,D30*%
X125600050Y-107156200D03*
X122050050Y-107156200D03*
%TD*%
%TO.C,D3*%
X58925050Y-69056200D03*
X55375050Y-69056200D03*
%TD*%
D10*
%TO.C,SW34*%
X201668750Y-97631200D03*
D11*
X202088750Y-97631200D03*
D12*
X202168750Y-101331200D03*
D13*
X203358750Y-95091200D03*
D14*
X207168750Y-97631200D03*
D12*
X207168750Y-103531200D03*
D13*
X209708750Y-92551200D03*
D11*
X212248750Y-97631200D03*
D10*
X212668750Y-97631200D03*
D15*
X198818750Y-101331200D03*
D16*
X199718750Y-95051200D03*
D15*
X210718750Y-103531200D03*
D16*
X213318750Y-92511200D03*
%TD*%
D20*
%TO.C,D23*%
X212696250Y-88106200D03*
X216246250Y-88106200D03*
%TD*%
%TO.C,D46*%
X203012550Y-126206200D03*
X206562550Y-126206200D03*
%TD*%
%TO.C,D22*%
X193646250Y-88106200D03*
X197196250Y-88106200D03*
%TD*%
%TO.C,D48*%
X241112550Y-126206200D03*
X244662550Y-126206200D03*
%TD*%
D16*
%TO.C,SW24*%
X246656250Y-73461200D03*
D15*
X244056250Y-84481200D03*
D16*
X233056250Y-76001200D03*
D15*
X232156250Y-82281200D03*
D10*
X246006250Y-78581200D03*
D11*
X245586250Y-78581200D03*
D13*
X243046250Y-73501200D03*
D12*
X240506250Y-84481200D03*
D14*
X240506250Y-78581200D03*
D13*
X236696250Y-76041200D03*
D12*
X235506250Y-82281200D03*
D11*
X235426250Y-78581200D03*
D10*
X235006250Y-78581200D03*
%TD*%
D16*
%TO.C,SW39*%
X84731250Y-111561200D03*
D15*
X82131250Y-122581200D03*
D16*
X71131250Y-114101200D03*
D15*
X70231250Y-120381200D03*
D10*
X84081250Y-116681200D03*
D11*
X83661250Y-116681200D03*
D13*
X81121250Y-111601200D03*
D12*
X78581250Y-122581200D03*
D14*
X78581250Y-116681200D03*
D13*
X74771250Y-114141200D03*
D12*
X73581250Y-120381200D03*
D11*
X73501250Y-116681200D03*
D10*
X73081250Y-116681200D03*
%TD*%
D20*
%TO.C,D4*%
X77975050Y-69056200D03*
X74425050Y-69056200D03*
%TD*%
D10*
%TO.C,SW28*%
X87368750Y-97631200D03*
D11*
X87788750Y-97631200D03*
D12*
X87868750Y-101331200D03*
D13*
X89058750Y-95091200D03*
D14*
X92868750Y-97631200D03*
D12*
X92868750Y-103531200D03*
D13*
X95408750Y-92551200D03*
D11*
X97948750Y-97631200D03*
D10*
X98368750Y-97631200D03*
D15*
X84518750Y-101331200D03*
D16*
X85418750Y-95051200D03*
D15*
X96418750Y-103531200D03*
D16*
X99018750Y-92511200D03*
%TD*%
D10*
%TO.C,SW13*%
X25456250Y-78581200D03*
D11*
X25876250Y-78581200D03*
D12*
X25956250Y-82281200D03*
D13*
X27146250Y-76041200D03*
D14*
X30956250Y-78581200D03*
D12*
X30956250Y-84481200D03*
D13*
X33496250Y-73501200D03*
D11*
X36036250Y-78581200D03*
D10*
X36456250Y-78581200D03*
D15*
X22606250Y-82281200D03*
D16*
X23506250Y-76001200D03*
D15*
X34506250Y-84481200D03*
D16*
X37106250Y-73461200D03*
%TD*%
D20*
%TO.C,D41*%
X107762550Y-126206200D03*
X111312550Y-126206200D03*
%TD*%
%TO.C,D45*%
X183962550Y-126206200D03*
X187512550Y-126206200D03*
%TD*%
%TO.C,D15*%
X60296250Y-88106200D03*
X63846250Y-88106200D03*
%TD*%
%TO.C,D6*%
X116075050Y-69056200D03*
X112525050Y-69056200D03*
%TD*%
%TO.C,D31*%
X144650050Y-107156200D03*
X141100050Y-107156200D03*
%TD*%
%TO.C,D7*%
X135125050Y-69056200D03*
X131575050Y-69056200D03*
%TD*%
%TO.C,D39*%
X69662550Y-126206200D03*
X73212550Y-126206200D03*
%TD*%
%TO.C,D8*%
X154175050Y-69056200D03*
X150625050Y-69056200D03*
%TD*%
%TO.C,D24*%
X231746250Y-88106200D03*
X235296250Y-88106200D03*
%TD*%
%TO.C,D1*%
X20825050Y-69056200D03*
X17275050Y-69056200D03*
%TD*%
%TO.C,D26*%
X49400050Y-107156200D03*
X45850050Y-107156200D03*
%TD*%
%TO.C,D17*%
X98396250Y-88106200D03*
X101946250Y-88106200D03*
%TD*%
D10*
%TO.C,SW36*%
X239768750Y-97631200D03*
D11*
X240188750Y-97631200D03*
D12*
X240268750Y-101331200D03*
D13*
X241458750Y-95091200D03*
D14*
X245268750Y-97631200D03*
D12*
X245268750Y-103531200D03*
D13*
X247808750Y-92551200D03*
D11*
X250348750Y-97631200D03*
D10*
X250768750Y-97631200D03*
D15*
X236918750Y-101331200D03*
D16*
X237818750Y-95051200D03*
D15*
X248818750Y-103531200D03*
D16*
X251418750Y-92511200D03*
%TD*%
%TO.C,SW43*%
X160931250Y-111561200D03*
D15*
X158331250Y-122581200D03*
D16*
X147331250Y-114101200D03*
D15*
X146431250Y-120381200D03*
D10*
X160281250Y-116681200D03*
D11*
X159861250Y-116681200D03*
D13*
X157321250Y-111601200D03*
D12*
X154781250Y-122581200D03*
D14*
X154781250Y-116681200D03*
D13*
X150971250Y-114141200D03*
D12*
X149781250Y-120381200D03*
D11*
X149701250Y-116681200D03*
D10*
X149281250Y-116681200D03*
%TD*%
%TO.C,SW26*%
X49268750Y-97631200D03*
D11*
X49688750Y-97631200D03*
D12*
X49768750Y-101331200D03*
D13*
X50958750Y-95091200D03*
D14*
X54768750Y-97631200D03*
D12*
X54768750Y-103531200D03*
D13*
X57308750Y-92551200D03*
D11*
X59848750Y-97631200D03*
D10*
X60268750Y-97631200D03*
D15*
X46418750Y-101331200D03*
D16*
X47318750Y-95051200D03*
D15*
X58318750Y-103531200D03*
D16*
X60918750Y-92511200D03*
%TD*%
%TO.C,SW41*%
X122831250Y-111561200D03*
D15*
X120231250Y-122581200D03*
D16*
X109231250Y-114101200D03*
D15*
X108331250Y-120381200D03*
D10*
X122181250Y-116681200D03*
D11*
X121761250Y-116681200D03*
D13*
X119221250Y-111601200D03*
D12*
X116681250Y-122581200D03*
D14*
X116681250Y-116681200D03*
D13*
X112871250Y-114141200D03*
D12*
X111681250Y-120381200D03*
D11*
X111601250Y-116681200D03*
D10*
X111181250Y-116681200D03*
%TD*%
D20*
%TO.C,D36*%
X239900050Y-107156200D03*
X236350050Y-107156200D03*
%TD*%
%TO.C,D42*%
X126812550Y-126206200D03*
X130362550Y-126206200D03*
%TD*%
D10*
%TO.C,SW30*%
X125468750Y-97631200D03*
D11*
X125888750Y-97631200D03*
D12*
X125968750Y-101331200D03*
D13*
X127158750Y-95091200D03*
D14*
X130968750Y-97631200D03*
D12*
X130968750Y-103531200D03*
D13*
X133508750Y-92551200D03*
D11*
X136048750Y-97631200D03*
D10*
X136468750Y-97631200D03*
D15*
X122618750Y-101331200D03*
D16*
X123518750Y-95051200D03*
D15*
X134518750Y-103531200D03*
D16*
X137118750Y-92511200D03*
%TD*%
D20*
%TO.C,D34*%
X201800050Y-107156200D03*
X198250050Y-107156200D03*
%TD*%
D10*
%TO.C,SW35*%
X220718750Y-97631200D03*
D11*
X221138750Y-97631200D03*
D12*
X221218750Y-101331200D03*
D13*
X222408750Y-95091200D03*
D14*
X226218750Y-97631200D03*
D12*
X226218750Y-103531200D03*
D13*
X228758750Y-92551200D03*
D11*
X231298750Y-97631200D03*
D10*
X231718750Y-97631200D03*
D15*
X217868750Y-101331200D03*
D16*
X218768750Y-95051200D03*
D15*
X229768750Y-103531200D03*
D16*
X232368750Y-92511200D03*
%TD*%
D20*
%TO.C,D44*%
X164912550Y-126206200D03*
X168462550Y-126206200D03*
%TD*%
%TO.C,D40*%
X88712550Y-126206200D03*
X92262550Y-126206200D03*
%TD*%
D16*
%TO.C,SW47*%
X237131250Y-111561200D03*
D15*
X234531250Y-122581200D03*
D16*
X223531250Y-114101200D03*
D15*
X222631250Y-120381200D03*
D10*
X236481250Y-116681200D03*
D11*
X236061250Y-116681200D03*
D13*
X233521250Y-111601200D03*
D12*
X230981250Y-122581200D03*
D14*
X230981250Y-116681200D03*
D13*
X227171250Y-114141200D03*
D12*
X225981250Y-120381200D03*
D11*
X225901250Y-116681200D03*
D10*
X225481250Y-116681200D03*
%TD*%
D20*
%TO.C,D35*%
X220850050Y-107156200D03*
X217300050Y-107156200D03*
%TD*%
%TO.C,D10*%
X192275050Y-69056200D03*
X188725050Y-69056200D03*
%TD*%
%TO.C,D9*%
X173225050Y-69056200D03*
X169675050Y-69056200D03*
%TD*%
%TO.C,D37*%
X31562550Y-126206200D03*
X35112550Y-126206200D03*
%TD*%
D10*
%TO.C,SW12*%
X230243750Y-59531200D03*
D11*
X230663750Y-59531200D03*
D12*
X230743750Y-63231200D03*
D13*
X231933750Y-56991200D03*
D14*
X235743750Y-59531200D03*
D12*
X235743750Y-65431200D03*
D13*
X238283750Y-54451200D03*
D11*
X240823750Y-59531200D03*
D10*
X241243750Y-59531200D03*
D15*
X227393750Y-63231200D03*
D16*
X228293750Y-56951200D03*
D15*
X239293750Y-65431200D03*
D16*
X241893750Y-54411200D03*
%TD*%
D20*
%TO.C,D28*%
X87500050Y-107156200D03*
X83950050Y-107156200D03*
%TD*%
%TO.C,D14*%
X41246250Y-88106200D03*
X44796250Y-88106200D03*
%TD*%
D16*
%TO.C,SW45*%
X199031250Y-111561200D03*
D15*
X196431250Y-122581200D03*
D16*
X185431250Y-114101200D03*
D15*
X184531250Y-120381200D03*
D10*
X198381250Y-116681200D03*
D11*
X197961250Y-116681200D03*
D13*
X195421250Y-111601200D03*
D12*
X192881250Y-122581200D03*
D14*
X192881250Y-116681200D03*
D13*
X189071250Y-114141200D03*
D12*
X187881250Y-120381200D03*
D11*
X187801250Y-116681200D03*
D10*
X187381250Y-116681200D03*
%TD*%
%TO.C,SW1*%
X20693750Y-59531200D03*
D11*
X21113750Y-59531200D03*
D12*
X21193750Y-63231200D03*
D13*
X22383750Y-56991200D03*
D14*
X26193750Y-59531200D03*
D12*
X26193750Y-65431200D03*
D13*
X28733750Y-54451200D03*
D11*
X31273750Y-59531200D03*
D10*
X31693750Y-59531200D03*
D15*
X17843750Y-63231200D03*
D16*
X18743750Y-56951200D03*
D15*
X29743750Y-65431200D03*
D16*
X32343750Y-54411200D03*
%TD*%
D20*
%TO.C,D27*%
X68450050Y-107156200D03*
X64900050Y-107156200D03*
%TD*%
D10*
%TO.C,SW32*%
X163568750Y-97631200D03*
D11*
X163988750Y-97631200D03*
D12*
X164068750Y-101331200D03*
D13*
X165258750Y-95091200D03*
D14*
X169068750Y-97631200D03*
D12*
X169068750Y-103531200D03*
D13*
X171608750Y-92551200D03*
D11*
X174148750Y-97631200D03*
D10*
X174568750Y-97631200D03*
D15*
X160718750Y-101331200D03*
D16*
X161618750Y-95051200D03*
D15*
X172618750Y-103531200D03*
D16*
X175218750Y-92511200D03*
%TD*%
D20*
%TO.C,D18*%
X117446250Y-88106200D03*
X120996250Y-88106200D03*
%TD*%
%TO.C,D38*%
X50612550Y-126206200D03*
X54162550Y-126206200D03*
%TD*%
%TO.C,D16*%
X79346250Y-88106200D03*
X82896250Y-88106200D03*
%TD*%
D16*
%TO.C,SW44*%
X179981250Y-111561200D03*
D15*
X177381250Y-122581200D03*
D16*
X166381250Y-114101200D03*
D15*
X165481250Y-120381200D03*
D10*
X179331250Y-116681200D03*
D11*
X178911250Y-116681200D03*
D13*
X176371250Y-111601200D03*
D12*
X173831250Y-122581200D03*
D14*
X173831250Y-116681200D03*
D13*
X170021250Y-114141200D03*
D12*
X168831250Y-120381200D03*
D11*
X168751250Y-116681200D03*
D10*
X168331250Y-116681200D03*
%TD*%
D20*
%TO.C,D5*%
X97025050Y-69056200D03*
X93475050Y-69056200D03*
%TD*%
%TO.C,D33*%
X182750050Y-107156200D03*
X179200050Y-107156200D03*
%TD*%
M02*
