%TF.GenerationSoftware,KiCad,Pcbnew,7.0.1*%
%TF.CreationDate,2023-04-02T20:01:42+09:00*%
%TF.ProjectId,first48,66697273-7434-4382-9e6b-696361645f70,rev?*%
%TF.SameCoordinates,Original*%
%TF.FileFunction,Legend,Top*%
%TF.FilePolarity,Positive*%
%FSLAX46Y46*%
G04 Gerber Fmt 4.6, Leading zero omitted, Abs format (unit mm)*
G04 Created by KiCad (PCBNEW 7.0.1) date 2023-04-02 20:01:42*
%MOMM*%
%LPD*%
G01*
G04 APERTURE LIST*
%ADD10C,0.150000*%
%ADD11C,0.125000*%
%ADD12C,0.120000*%
%ADD13C,1.524000*%
%ADD14C,1.900000*%
%ADD15C,2.000000*%
%ADD16C,3.100000*%
%ADD17C,3.000000*%
%ADD18C,4.000000*%
%ADD19O,1.300000X1.000000*%
%ADD20R,2.000000X1.600000*%
%ADD21O,2.550000X1.800000*%
%ADD22C,14.000000*%
%ADD23R,1.300000X0.950000*%
G04 APERTURE END LIST*
D10*
X21308869Y-125968154D02*
X20308869Y-125968154D01*
X20308869Y-125968154D02*
X20308869Y-125587202D01*
X20308869Y-125587202D02*
X20356488Y-125491964D01*
X20356488Y-125491964D02*
X20404107Y-125444345D01*
X20404107Y-125444345D02*
X20499345Y-125396726D01*
X20499345Y-125396726D02*
X20642202Y-125396726D01*
X20642202Y-125396726D02*
X20737440Y-125444345D01*
X20737440Y-125444345D02*
X20785059Y-125491964D01*
X20785059Y-125491964D02*
X20832678Y-125587202D01*
X20832678Y-125587202D02*
X20832678Y-125968154D01*
X21213630Y-124396726D02*
X21261250Y-124444345D01*
X21261250Y-124444345D02*
X21308869Y-124587202D01*
X21308869Y-124587202D02*
X21308869Y-124682440D01*
X21308869Y-124682440D02*
X21261250Y-124825297D01*
X21261250Y-124825297D02*
X21166011Y-124920535D01*
X21166011Y-124920535D02*
X21070773Y-124968154D01*
X21070773Y-124968154D02*
X20880297Y-125015773D01*
X20880297Y-125015773D02*
X20737440Y-125015773D01*
X20737440Y-125015773D02*
X20546964Y-124968154D01*
X20546964Y-124968154D02*
X20451726Y-124920535D01*
X20451726Y-124920535D02*
X20356488Y-124825297D01*
X20356488Y-124825297D02*
X20308869Y-124682440D01*
X20308869Y-124682440D02*
X20308869Y-124587202D01*
X20308869Y-124587202D02*
X20356488Y-124444345D01*
X20356488Y-124444345D02*
X20404107Y-124396726D01*
X20785059Y-123634821D02*
X20832678Y-123491964D01*
X20832678Y-123491964D02*
X20880297Y-123444345D01*
X20880297Y-123444345D02*
X20975535Y-123396726D01*
X20975535Y-123396726D02*
X21118392Y-123396726D01*
X21118392Y-123396726D02*
X21213630Y-123444345D01*
X21213630Y-123444345D02*
X21261250Y-123491964D01*
X21261250Y-123491964D02*
X21308869Y-123587202D01*
X21308869Y-123587202D02*
X21308869Y-123968154D01*
X21308869Y-123968154D02*
X20308869Y-123968154D01*
X20308869Y-123968154D02*
X20308869Y-123634821D01*
X20308869Y-123634821D02*
X20356488Y-123539583D01*
X20356488Y-123539583D02*
X20404107Y-123491964D01*
X20404107Y-123491964D02*
X20499345Y-123444345D01*
X20499345Y-123444345D02*
X20594583Y-123444345D01*
X20594583Y-123444345D02*
X20689821Y-123491964D01*
X20689821Y-123491964D02*
X20737440Y-123539583D01*
X20737440Y-123539583D02*
X20785059Y-123634821D01*
X20785059Y-123634821D02*
X20785059Y-123968154D01*
X21308869Y-122206249D02*
X20308869Y-122206249D01*
X20308869Y-122206249D02*
X20308869Y-121968154D01*
X20308869Y-121968154D02*
X20356488Y-121825297D01*
X20356488Y-121825297D02*
X20451726Y-121730059D01*
X20451726Y-121730059D02*
X20546964Y-121682440D01*
X20546964Y-121682440D02*
X20737440Y-121634821D01*
X20737440Y-121634821D02*
X20880297Y-121634821D01*
X20880297Y-121634821D02*
X21070773Y-121682440D01*
X21070773Y-121682440D02*
X21166011Y-121730059D01*
X21166011Y-121730059D02*
X21261250Y-121825297D01*
X21261250Y-121825297D02*
X21308869Y-121968154D01*
X21308869Y-121968154D02*
X21308869Y-122206249D01*
X21261250Y-120825297D02*
X21308869Y-120920535D01*
X21308869Y-120920535D02*
X21308869Y-121111011D01*
X21308869Y-121111011D02*
X21261250Y-121206249D01*
X21261250Y-121206249D02*
X21166011Y-121253868D01*
X21166011Y-121253868D02*
X20785059Y-121253868D01*
X20785059Y-121253868D02*
X20689821Y-121206249D01*
X20689821Y-121206249D02*
X20642202Y-121111011D01*
X20642202Y-121111011D02*
X20642202Y-120920535D01*
X20642202Y-120920535D02*
X20689821Y-120825297D01*
X20689821Y-120825297D02*
X20785059Y-120777678D01*
X20785059Y-120777678D02*
X20880297Y-120777678D01*
X20880297Y-120777678D02*
X20975535Y-121253868D01*
X21261250Y-120396725D02*
X21308869Y-120301487D01*
X21308869Y-120301487D02*
X21308869Y-120111011D01*
X21308869Y-120111011D02*
X21261250Y-120015773D01*
X21261250Y-120015773D02*
X21166011Y-119968154D01*
X21166011Y-119968154D02*
X21118392Y-119968154D01*
X21118392Y-119968154D02*
X21023154Y-120015773D01*
X21023154Y-120015773D02*
X20975535Y-120111011D01*
X20975535Y-120111011D02*
X20975535Y-120253868D01*
X20975535Y-120253868D02*
X20927916Y-120349106D01*
X20927916Y-120349106D02*
X20832678Y-120396725D01*
X20832678Y-120396725D02*
X20785059Y-120396725D01*
X20785059Y-120396725D02*
X20689821Y-120349106D01*
X20689821Y-120349106D02*
X20642202Y-120253868D01*
X20642202Y-120253868D02*
X20642202Y-120111011D01*
X20642202Y-120111011D02*
X20689821Y-120015773D01*
X21308869Y-119539582D02*
X20642202Y-119539582D01*
X20308869Y-119539582D02*
X20356488Y-119587201D01*
X20356488Y-119587201D02*
X20404107Y-119539582D01*
X20404107Y-119539582D02*
X20356488Y-119491963D01*
X20356488Y-119491963D02*
X20308869Y-119539582D01*
X20308869Y-119539582D02*
X20404107Y-119539582D01*
X20642202Y-118634821D02*
X21451726Y-118634821D01*
X21451726Y-118634821D02*
X21546964Y-118682440D01*
X21546964Y-118682440D02*
X21594583Y-118730059D01*
X21594583Y-118730059D02*
X21642202Y-118825297D01*
X21642202Y-118825297D02*
X21642202Y-118968154D01*
X21642202Y-118968154D02*
X21594583Y-119063392D01*
X21261250Y-118634821D02*
X21308869Y-118730059D01*
X21308869Y-118730059D02*
X21308869Y-118920535D01*
X21308869Y-118920535D02*
X21261250Y-119015773D01*
X21261250Y-119015773D02*
X21213630Y-119063392D01*
X21213630Y-119063392D02*
X21118392Y-119111011D01*
X21118392Y-119111011D02*
X20832678Y-119111011D01*
X20832678Y-119111011D02*
X20737440Y-119063392D01*
X20737440Y-119063392D02*
X20689821Y-119015773D01*
X20689821Y-119015773D02*
X20642202Y-118920535D01*
X20642202Y-118920535D02*
X20642202Y-118730059D01*
X20642202Y-118730059D02*
X20689821Y-118634821D01*
X20642202Y-118158630D02*
X21308869Y-118158630D01*
X20737440Y-118158630D02*
X20689821Y-118111011D01*
X20689821Y-118111011D02*
X20642202Y-118015773D01*
X20642202Y-118015773D02*
X20642202Y-117872916D01*
X20642202Y-117872916D02*
X20689821Y-117777678D01*
X20689821Y-117777678D02*
X20785059Y-117730059D01*
X20785059Y-117730059D02*
X21308869Y-117730059D01*
X21308869Y-116491963D02*
X20308869Y-116491963D01*
X20689821Y-116491963D02*
X20642202Y-116396725D01*
X20642202Y-116396725D02*
X20642202Y-116206249D01*
X20642202Y-116206249D02*
X20689821Y-116111011D01*
X20689821Y-116111011D02*
X20737440Y-116063392D01*
X20737440Y-116063392D02*
X20832678Y-116015773D01*
X20832678Y-116015773D02*
X21118392Y-116015773D01*
X21118392Y-116015773D02*
X21213630Y-116063392D01*
X21213630Y-116063392D02*
X21261250Y-116111011D01*
X21261250Y-116111011D02*
X21308869Y-116206249D01*
X21308869Y-116206249D02*
X21308869Y-116396725D01*
X21308869Y-116396725D02*
X21261250Y-116491963D01*
X20642202Y-115682439D02*
X21308869Y-115444344D01*
X20642202Y-115206249D02*
X21308869Y-115444344D01*
X21308869Y-115444344D02*
X21546964Y-115539582D01*
X21546964Y-115539582D02*
X21594583Y-115587201D01*
X21594583Y-115587201D02*
X21642202Y-115682439D01*
X20832678Y-113444344D02*
X20785059Y-113491963D01*
X20785059Y-113491963D02*
X20737440Y-113587201D01*
X20737440Y-113587201D02*
X20737440Y-113682439D01*
X20737440Y-113682439D02*
X20785059Y-113777677D01*
X20785059Y-113777677D02*
X20832678Y-113825296D01*
X20832678Y-113825296D02*
X20927916Y-113872915D01*
X20927916Y-113872915D02*
X21023154Y-113872915D01*
X21023154Y-113872915D02*
X21118392Y-113825296D01*
X21118392Y-113825296D02*
X21166011Y-113777677D01*
X21166011Y-113777677D02*
X21213630Y-113682439D01*
X21213630Y-113682439D02*
X21213630Y-113587201D01*
X21213630Y-113587201D02*
X21166011Y-113491963D01*
X21166011Y-113491963D02*
X21118392Y-113444344D01*
X20737440Y-113444344D02*
X21118392Y-113444344D01*
X21118392Y-113444344D02*
X21166011Y-113396725D01*
X21166011Y-113396725D02*
X21166011Y-113349106D01*
X21166011Y-113349106D02*
X21118392Y-113253867D01*
X21118392Y-113253867D02*
X21023154Y-113206248D01*
X21023154Y-113206248D02*
X20785059Y-113206248D01*
X20785059Y-113206248D02*
X20642202Y-113301487D01*
X20642202Y-113301487D02*
X20546964Y-113444344D01*
X20546964Y-113444344D02*
X20499345Y-113634820D01*
X20499345Y-113634820D02*
X20546964Y-113825296D01*
X20546964Y-113825296D02*
X20642202Y-113968153D01*
X20642202Y-113968153D02*
X20785059Y-114063391D01*
X20785059Y-114063391D02*
X20975535Y-114111010D01*
X20975535Y-114111010D02*
X21166011Y-114063391D01*
X21166011Y-114063391D02*
X21308869Y-113968153D01*
X21308869Y-113968153D02*
X21404107Y-113825296D01*
X21404107Y-113825296D02*
X21451726Y-113634820D01*
X21451726Y-113634820D02*
X21404107Y-113444344D01*
X21404107Y-113444344D02*
X21308869Y-113301487D01*
X20642202Y-112920534D02*
X20642202Y-112539582D01*
X21308869Y-112777677D02*
X20451726Y-112777677D01*
X20451726Y-112777677D02*
X20356488Y-112730058D01*
X20356488Y-112730058D02*
X20308869Y-112634820D01*
X20308869Y-112634820D02*
X20308869Y-112539582D01*
X20642202Y-111777677D02*
X21308869Y-111777677D01*
X20642202Y-112206248D02*
X21166011Y-112206248D01*
X21166011Y-112206248D02*
X21261250Y-112158629D01*
X21261250Y-112158629D02*
X21308869Y-112063391D01*
X21308869Y-112063391D02*
X21308869Y-111920534D01*
X21308869Y-111920534D02*
X21261250Y-111825296D01*
X21261250Y-111825296D02*
X21213630Y-111777677D01*
X20642202Y-111396724D02*
X21308869Y-111158629D01*
X20642202Y-110920534D02*
X21308869Y-111158629D01*
X21308869Y-111158629D02*
X21546964Y-111253867D01*
X21546964Y-111253867D02*
X21594583Y-111301486D01*
X21594583Y-111301486D02*
X21642202Y-111396724D01*
X20642202Y-110111010D02*
X21308869Y-110111010D01*
X20642202Y-110539581D02*
X21166011Y-110539581D01*
X21166011Y-110539581D02*
X21261250Y-110491962D01*
X21261250Y-110491962D02*
X21308869Y-110396724D01*
X21308869Y-110396724D02*
X21308869Y-110253867D01*
X21308869Y-110253867D02*
X21261250Y-110158629D01*
X21261250Y-110158629D02*
X21213630Y-110111010D01*
X20642202Y-109634819D02*
X21308869Y-109634819D01*
X20737440Y-109634819D02*
X20689821Y-109587200D01*
X20689821Y-109587200D02*
X20642202Y-109491962D01*
X20642202Y-109491962D02*
X20642202Y-109349105D01*
X20642202Y-109349105D02*
X20689821Y-109253867D01*
X20689821Y-109253867D02*
X20785059Y-109206248D01*
X20785059Y-109206248D02*
X21308869Y-109206248D01*
X21308869Y-108587200D02*
X21261250Y-108682438D01*
X21261250Y-108682438D02*
X21213630Y-108730057D01*
X21213630Y-108730057D02*
X21118392Y-108777676D01*
X21118392Y-108777676D02*
X20832678Y-108777676D01*
X20832678Y-108777676D02*
X20737440Y-108730057D01*
X20737440Y-108730057D02*
X20689821Y-108682438D01*
X20689821Y-108682438D02*
X20642202Y-108587200D01*
X20642202Y-108587200D02*
X20642202Y-108444343D01*
X20642202Y-108444343D02*
X20689821Y-108349105D01*
X20689821Y-108349105D02*
X20737440Y-108301486D01*
X20737440Y-108301486D02*
X20832678Y-108253867D01*
X20832678Y-108253867D02*
X21118392Y-108253867D01*
X21118392Y-108253867D02*
X21213630Y-108301486D01*
X21213630Y-108301486D02*
X21261250Y-108349105D01*
X21261250Y-108349105D02*
X21308869Y-108444343D01*
X21308869Y-108444343D02*
X21308869Y-108587200D01*
X21261250Y-107872914D02*
X21308869Y-107777676D01*
X21308869Y-107777676D02*
X21308869Y-107587200D01*
X21308869Y-107587200D02*
X21261250Y-107491962D01*
X21261250Y-107491962D02*
X21166011Y-107444343D01*
X21166011Y-107444343D02*
X21118392Y-107444343D01*
X21118392Y-107444343D02*
X21023154Y-107491962D01*
X21023154Y-107491962D02*
X20975535Y-107587200D01*
X20975535Y-107587200D02*
X20975535Y-107730057D01*
X20975535Y-107730057D02*
X20927916Y-107825295D01*
X20927916Y-107825295D02*
X20832678Y-107872914D01*
X20832678Y-107872914D02*
X20785059Y-107872914D01*
X20785059Y-107872914D02*
X20689821Y-107825295D01*
X20689821Y-107825295D02*
X20642202Y-107730057D01*
X20642202Y-107730057D02*
X20642202Y-107587200D01*
X20642202Y-107587200D02*
X20689821Y-107491962D01*
X20642202Y-106587200D02*
X21308869Y-106587200D01*
X20642202Y-107015771D02*
X21166011Y-107015771D01*
X21166011Y-107015771D02*
X21261250Y-106968152D01*
X21261250Y-106968152D02*
X21308869Y-106872914D01*
X21308869Y-106872914D02*
X21308869Y-106730057D01*
X21308869Y-106730057D02*
X21261250Y-106634819D01*
X21261250Y-106634819D02*
X21213630Y-106587200D01*
X20642202Y-105682438D02*
X21451726Y-105682438D01*
X21451726Y-105682438D02*
X21546964Y-105730057D01*
X21546964Y-105730057D02*
X21594583Y-105777676D01*
X21594583Y-105777676D02*
X21642202Y-105872914D01*
X21642202Y-105872914D02*
X21642202Y-106015771D01*
X21642202Y-106015771D02*
X21594583Y-106111009D01*
X21261250Y-105682438D02*
X21308869Y-105777676D01*
X21308869Y-105777676D02*
X21308869Y-105968152D01*
X21308869Y-105968152D02*
X21261250Y-106063390D01*
X21261250Y-106063390D02*
X21213630Y-106111009D01*
X21213630Y-106111009D02*
X21118392Y-106158628D01*
X21118392Y-106158628D02*
X20832678Y-106158628D01*
X20832678Y-106158628D02*
X20737440Y-106111009D01*
X20737440Y-106111009D02*
X20689821Y-106063390D01*
X20689821Y-106063390D02*
X20642202Y-105968152D01*
X20642202Y-105968152D02*
X20642202Y-105777676D01*
X20642202Y-105777676D02*
X20689821Y-105682438D01*
X20642202Y-104777676D02*
X21308869Y-104777676D01*
X20642202Y-105206247D02*
X21166011Y-105206247D01*
X21166011Y-105206247D02*
X21261250Y-105158628D01*
X21261250Y-105158628D02*
X21308869Y-105063390D01*
X21308869Y-105063390D02*
X21308869Y-104920533D01*
X21308869Y-104920533D02*
X21261250Y-104825295D01*
X21261250Y-104825295D02*
X21213630Y-104777676D01*
X21308869Y-104301485D02*
X20642202Y-104301485D01*
X20832678Y-104301485D02*
X20737440Y-104253866D01*
X20737440Y-104253866D02*
X20689821Y-104206247D01*
X20689821Y-104206247D02*
X20642202Y-104111009D01*
X20642202Y-104111009D02*
X20642202Y-104015771D01*
X20642202Y-103253866D02*
X21308869Y-103253866D01*
X20642202Y-103682437D02*
X21166011Y-103682437D01*
X21166011Y-103682437D02*
X21261250Y-103634818D01*
X21261250Y-103634818D02*
X21308869Y-103539580D01*
X21308869Y-103539580D02*
X21308869Y-103396723D01*
X21308869Y-103396723D02*
X21261250Y-103301485D01*
X21261250Y-103301485D02*
X21213630Y-103253866D01*
X18145333Y-125406250D02*
X18145333Y-125872916D01*
X18878666Y-125872916D02*
X17478666Y-125872916D01*
X17478666Y-125872916D02*
X17478666Y-125206250D01*
X18878666Y-124072916D02*
X18145333Y-124072916D01*
X18145333Y-124072916D02*
X18012000Y-124139583D01*
X18012000Y-124139583D02*
X17945333Y-124272916D01*
X17945333Y-124272916D02*
X17945333Y-124539583D01*
X17945333Y-124539583D02*
X18012000Y-124672916D01*
X18812000Y-124072916D02*
X18878666Y-124206250D01*
X18878666Y-124206250D02*
X18878666Y-124539583D01*
X18878666Y-124539583D02*
X18812000Y-124672916D01*
X18812000Y-124672916D02*
X18678666Y-124739583D01*
X18678666Y-124739583D02*
X18545333Y-124739583D01*
X18545333Y-124739583D02*
X18412000Y-124672916D01*
X18412000Y-124672916D02*
X18345333Y-124539583D01*
X18345333Y-124539583D02*
X18345333Y-124206250D01*
X18345333Y-124206250D02*
X18278666Y-124072916D01*
X18812000Y-122806249D02*
X18878666Y-122939583D01*
X18878666Y-122939583D02*
X18878666Y-123206249D01*
X18878666Y-123206249D02*
X18812000Y-123339583D01*
X18812000Y-123339583D02*
X18745333Y-123406249D01*
X18745333Y-123406249D02*
X18612000Y-123472916D01*
X18612000Y-123472916D02*
X18212000Y-123472916D01*
X18212000Y-123472916D02*
X18078666Y-123406249D01*
X18078666Y-123406249D02*
X18012000Y-123339583D01*
X18012000Y-123339583D02*
X17945333Y-123206249D01*
X17945333Y-123206249D02*
X17945333Y-122939583D01*
X17945333Y-122939583D02*
X18012000Y-122806249D01*
X18878666Y-122206249D02*
X17945333Y-122206249D01*
X17478666Y-122206249D02*
X17545333Y-122272916D01*
X17545333Y-122272916D02*
X17612000Y-122206249D01*
X17612000Y-122206249D02*
X17545333Y-122139583D01*
X17545333Y-122139583D02*
X17478666Y-122206249D01*
X17478666Y-122206249D02*
X17612000Y-122206249D01*
X18878666Y-121339582D02*
X18812000Y-121472916D01*
X18812000Y-121472916D02*
X18678666Y-121539582D01*
X18678666Y-121539582D02*
X17478666Y-121539582D01*
X18878666Y-120606249D02*
X18812000Y-120739583D01*
X18812000Y-120739583D02*
X18745333Y-120806249D01*
X18745333Y-120806249D02*
X18612000Y-120872916D01*
X18612000Y-120872916D02*
X18212000Y-120872916D01*
X18212000Y-120872916D02*
X18078666Y-120806249D01*
X18078666Y-120806249D02*
X18012000Y-120739583D01*
X18012000Y-120739583D02*
X17945333Y-120606249D01*
X17945333Y-120606249D02*
X17945333Y-120406249D01*
X17945333Y-120406249D02*
X18012000Y-120272916D01*
X18012000Y-120272916D02*
X18078666Y-120206249D01*
X18078666Y-120206249D02*
X18212000Y-120139583D01*
X18212000Y-120139583D02*
X18612000Y-120139583D01*
X18612000Y-120139583D02*
X18745333Y-120206249D01*
X18745333Y-120206249D02*
X18812000Y-120272916D01*
X18812000Y-120272916D02*
X18878666Y-120406249D01*
X18878666Y-120406249D02*
X18878666Y-120606249D01*
X17945333Y-118939582D02*
X18878666Y-118939582D01*
X17412000Y-119272916D02*
X18412000Y-119606249D01*
X18412000Y-119606249D02*
X18412000Y-118739582D01*
X18078666Y-118006249D02*
X18012000Y-118139583D01*
X18012000Y-118139583D02*
X17945333Y-118206249D01*
X17945333Y-118206249D02*
X17812000Y-118272916D01*
X17812000Y-118272916D02*
X17745333Y-118272916D01*
X17745333Y-118272916D02*
X17612000Y-118206249D01*
X17612000Y-118206249D02*
X17545333Y-118139583D01*
X17545333Y-118139583D02*
X17478666Y-118006249D01*
X17478666Y-118006249D02*
X17478666Y-117739583D01*
X17478666Y-117739583D02*
X17545333Y-117606249D01*
X17545333Y-117606249D02*
X17612000Y-117539583D01*
X17612000Y-117539583D02*
X17745333Y-117472916D01*
X17745333Y-117472916D02*
X17812000Y-117472916D01*
X17812000Y-117472916D02*
X17945333Y-117539583D01*
X17945333Y-117539583D02*
X18012000Y-117606249D01*
X18012000Y-117606249D02*
X18078666Y-117739583D01*
X18078666Y-117739583D02*
X18078666Y-118006249D01*
X18078666Y-118006249D02*
X18145333Y-118139583D01*
X18145333Y-118139583D02*
X18212000Y-118206249D01*
X18212000Y-118206249D02*
X18345333Y-118272916D01*
X18345333Y-118272916D02*
X18612000Y-118272916D01*
X18612000Y-118272916D02*
X18745333Y-118206249D01*
X18745333Y-118206249D02*
X18812000Y-118139583D01*
X18812000Y-118139583D02*
X18878666Y-118006249D01*
X18878666Y-118006249D02*
X18878666Y-117739583D01*
X18878666Y-117739583D02*
X18812000Y-117606249D01*
X18812000Y-117606249D02*
X18745333Y-117539583D01*
X18745333Y-117539583D02*
X18612000Y-117472916D01*
X18612000Y-117472916D02*
X18345333Y-117472916D01*
X18345333Y-117472916D02*
X18212000Y-117539583D01*
X18212000Y-117539583D02*
X18145333Y-117606249D01*
X18145333Y-117606249D02*
X18078666Y-117739583D01*
X17945333Y-115939583D02*
X18878666Y-115606249D01*
X18878666Y-115606249D02*
X17945333Y-115272916D01*
X17478666Y-114472916D02*
X17478666Y-114339582D01*
X17478666Y-114339582D02*
X17545333Y-114206249D01*
X17545333Y-114206249D02*
X17612000Y-114139582D01*
X17612000Y-114139582D02*
X17745333Y-114072916D01*
X17745333Y-114072916D02*
X18012000Y-114006249D01*
X18012000Y-114006249D02*
X18345333Y-114006249D01*
X18345333Y-114006249D02*
X18612000Y-114072916D01*
X18612000Y-114072916D02*
X18745333Y-114139582D01*
X18745333Y-114139582D02*
X18812000Y-114206249D01*
X18812000Y-114206249D02*
X18878666Y-114339582D01*
X18878666Y-114339582D02*
X18878666Y-114472916D01*
X18878666Y-114472916D02*
X18812000Y-114606249D01*
X18812000Y-114606249D02*
X18745333Y-114672916D01*
X18745333Y-114672916D02*
X18612000Y-114739582D01*
X18612000Y-114739582D02*
X18345333Y-114806249D01*
X18345333Y-114806249D02*
X18012000Y-114806249D01*
X18012000Y-114806249D02*
X17745333Y-114739582D01*
X17745333Y-114739582D02*
X17612000Y-114672916D01*
X17612000Y-114672916D02*
X17545333Y-114606249D01*
X17545333Y-114606249D02*
X17478666Y-114472916D01*
X18745333Y-113406249D02*
X18812000Y-113339583D01*
X18812000Y-113339583D02*
X18878666Y-113406249D01*
X18878666Y-113406249D02*
X18812000Y-113472916D01*
X18812000Y-113472916D02*
X18745333Y-113406249D01*
X18745333Y-113406249D02*
X18878666Y-113406249D01*
X18878666Y-112672916D02*
X18878666Y-112406249D01*
X18878666Y-112406249D02*
X18812000Y-112272916D01*
X18812000Y-112272916D02*
X18745333Y-112206249D01*
X18745333Y-112206249D02*
X18545333Y-112072916D01*
X18545333Y-112072916D02*
X18278666Y-112006249D01*
X18278666Y-112006249D02*
X17745333Y-112006249D01*
X17745333Y-112006249D02*
X17612000Y-112072916D01*
X17612000Y-112072916D02*
X17545333Y-112139582D01*
X17545333Y-112139582D02*
X17478666Y-112272916D01*
X17478666Y-112272916D02*
X17478666Y-112539582D01*
X17478666Y-112539582D02*
X17545333Y-112672916D01*
X17545333Y-112672916D02*
X17612000Y-112739582D01*
X17612000Y-112739582D02*
X17745333Y-112806249D01*
X17745333Y-112806249D02*
X18078666Y-112806249D01*
X18078666Y-112806249D02*
X18212000Y-112739582D01*
X18212000Y-112739582D02*
X18278666Y-112672916D01*
X18278666Y-112672916D02*
X18345333Y-112539582D01*
X18345333Y-112539582D02*
X18345333Y-112272916D01*
X18345333Y-112272916D02*
X18278666Y-112139582D01*
X18278666Y-112139582D02*
X18212000Y-112072916D01*
X18212000Y-112072916D02*
X18078666Y-112006249D01*
D11*
%TO.C,U1*%
X280889897Y-56750878D02*
X280842278Y-56715164D01*
X280842278Y-56715164D02*
X280770849Y-56715164D01*
X280770849Y-56715164D02*
X280699421Y-56750878D01*
X280699421Y-56750878D02*
X280651802Y-56822307D01*
X280651802Y-56822307D02*
X280627992Y-56893735D01*
X280627992Y-56893735D02*
X280604183Y-57036592D01*
X280604183Y-57036592D02*
X280604183Y-57143735D01*
X280604183Y-57143735D02*
X280627992Y-57286592D01*
X280627992Y-57286592D02*
X280651802Y-57358021D01*
X280651802Y-57358021D02*
X280699421Y-57429450D01*
X280699421Y-57429450D02*
X280770849Y-57465164D01*
X280770849Y-57465164D02*
X280818468Y-57465164D01*
X280818468Y-57465164D02*
X280889897Y-57429450D01*
X280889897Y-57429450D02*
X280913706Y-57393735D01*
X280913706Y-57393735D02*
X280913706Y-57143735D01*
X280913706Y-57143735D02*
X280818468Y-57143735D01*
X281127992Y-57465164D02*
X281127992Y-56715164D01*
X281127992Y-56715164D02*
X281413706Y-57465164D01*
X281413706Y-57465164D02*
X281413706Y-56715164D01*
X281651802Y-57465164D02*
X281651802Y-56715164D01*
X281651802Y-56715164D02*
X281770850Y-56715164D01*
X281770850Y-56715164D02*
X281842278Y-56750878D01*
X281842278Y-56750878D02*
X281889897Y-56822307D01*
X281889897Y-56822307D02*
X281913707Y-56893735D01*
X281913707Y-56893735D02*
X281937516Y-57036592D01*
X281937516Y-57036592D02*
X281937516Y-57143735D01*
X281937516Y-57143735D02*
X281913707Y-57286592D01*
X281913707Y-57286592D02*
X281889897Y-57358021D01*
X281889897Y-57358021D02*
X281842278Y-57429450D01*
X281842278Y-57429450D02*
X281770850Y-57465164D01*
X281770850Y-57465164D02*
X281651802Y-57465164D01*
X281002969Y-74860307D02*
X281074397Y-74896021D01*
X281074397Y-74896021D02*
X281098207Y-74931735D01*
X281098207Y-74931735D02*
X281122016Y-75003164D01*
X281122016Y-75003164D02*
X281122016Y-75110307D01*
X281122016Y-75110307D02*
X281098207Y-75181735D01*
X281098207Y-75181735D02*
X281074397Y-75217450D01*
X281074397Y-75217450D02*
X281026778Y-75253164D01*
X281026778Y-75253164D02*
X280836302Y-75253164D01*
X280836302Y-75253164D02*
X280836302Y-74503164D01*
X280836302Y-74503164D02*
X281002969Y-74503164D01*
X281002969Y-74503164D02*
X281050588Y-74538878D01*
X281050588Y-74538878D02*
X281074397Y-74574592D01*
X281074397Y-74574592D02*
X281098207Y-74646021D01*
X281098207Y-74646021D02*
X281098207Y-74717450D01*
X281098207Y-74717450D02*
X281074397Y-74788878D01*
X281074397Y-74788878D02*
X281050588Y-74824592D01*
X281050588Y-74824592D02*
X281002969Y-74860307D01*
X281002969Y-74860307D02*
X280836302Y-74860307D01*
X281598207Y-75253164D02*
X281312493Y-75253164D01*
X281455350Y-75253164D02*
X281455350Y-74503164D01*
X281455350Y-74503164D02*
X281407731Y-74610307D01*
X281407731Y-74610307D02*
X281360112Y-74681735D01*
X281360112Y-74681735D02*
X281312493Y-74717450D01*
X280925611Y-54925164D02*
X280758945Y-54568021D01*
X280639897Y-54925164D02*
X280639897Y-54175164D01*
X280639897Y-54175164D02*
X280830373Y-54175164D01*
X280830373Y-54175164D02*
X280877992Y-54210878D01*
X280877992Y-54210878D02*
X280901802Y-54246592D01*
X280901802Y-54246592D02*
X280925611Y-54318021D01*
X280925611Y-54318021D02*
X280925611Y-54425164D01*
X280925611Y-54425164D02*
X280901802Y-54496592D01*
X280901802Y-54496592D02*
X280877992Y-54532307D01*
X280877992Y-54532307D02*
X280830373Y-54568021D01*
X280830373Y-54568021D02*
X280639897Y-54568021D01*
X281116088Y-54710878D02*
X281354183Y-54710878D01*
X281068469Y-54925164D02*
X281235135Y-54175164D01*
X281235135Y-54175164D02*
X281401802Y-54925164D01*
X281520849Y-54175164D02*
X281639897Y-54925164D01*
X281639897Y-54925164D02*
X281735135Y-54389450D01*
X281735135Y-54389450D02*
X281830373Y-54925164D01*
X281830373Y-54925164D02*
X281949421Y-54175164D01*
X265725302Y-67625164D02*
X265725302Y-66875164D01*
X265725302Y-66875164D02*
X265844350Y-66875164D01*
X265844350Y-66875164D02*
X265915778Y-66910878D01*
X265915778Y-66910878D02*
X265963397Y-66982307D01*
X265963397Y-66982307D02*
X265987207Y-67053735D01*
X265987207Y-67053735D02*
X266011016Y-67196592D01*
X266011016Y-67196592D02*
X266011016Y-67303735D01*
X266011016Y-67303735D02*
X265987207Y-67446592D01*
X265987207Y-67446592D02*
X265963397Y-67518021D01*
X265963397Y-67518021D02*
X265915778Y-67589450D01*
X265915778Y-67589450D02*
X265844350Y-67625164D01*
X265844350Y-67625164D02*
X265725302Y-67625164D01*
X266320540Y-66875164D02*
X266368159Y-66875164D01*
X266368159Y-66875164D02*
X266415778Y-66910878D01*
X266415778Y-66910878D02*
X266439588Y-66946592D01*
X266439588Y-66946592D02*
X266463397Y-67018021D01*
X266463397Y-67018021D02*
X266487207Y-67160878D01*
X266487207Y-67160878D02*
X266487207Y-67339450D01*
X266487207Y-67339450D02*
X266463397Y-67482307D01*
X266463397Y-67482307D02*
X266439588Y-67553735D01*
X266439588Y-67553735D02*
X266415778Y-67589450D01*
X266415778Y-67589450D02*
X266368159Y-67625164D01*
X266368159Y-67625164D02*
X266320540Y-67625164D01*
X266320540Y-67625164D02*
X266272921Y-67589450D01*
X266272921Y-67589450D02*
X266249112Y-67553735D01*
X266249112Y-67553735D02*
X266225302Y-67482307D01*
X266225302Y-67482307D02*
X266201493Y-67339450D01*
X266201493Y-67339450D02*
X266201493Y-67160878D01*
X266201493Y-67160878D02*
X266225302Y-67018021D01*
X266225302Y-67018021D02*
X266249112Y-66946592D01*
X266249112Y-66946592D02*
X266272921Y-66910878D01*
X266272921Y-66910878D02*
X266320540Y-66875164D01*
X280988684Y-72360307D02*
X280822017Y-72360307D01*
X280822017Y-72753164D02*
X280822017Y-72003164D01*
X280822017Y-72003164D02*
X281060112Y-72003164D01*
X281202969Y-72003164D02*
X281536302Y-72003164D01*
X281536302Y-72003164D02*
X281322017Y-72753164D01*
X280997040Y-60068664D02*
X280830374Y-59711521D01*
X280711326Y-60068664D02*
X280711326Y-59318664D01*
X280711326Y-59318664D02*
X280901802Y-59318664D01*
X280901802Y-59318664D02*
X280949421Y-59354378D01*
X280949421Y-59354378D02*
X280973231Y-59390092D01*
X280973231Y-59390092D02*
X280997040Y-59461521D01*
X280997040Y-59461521D02*
X280997040Y-59568664D01*
X280997040Y-59568664D02*
X280973231Y-59640092D01*
X280973231Y-59640092D02*
X280949421Y-59675807D01*
X280949421Y-59675807D02*
X280901802Y-59711521D01*
X280901802Y-59711521D02*
X280711326Y-59711521D01*
X281187517Y-60032950D02*
X281258945Y-60068664D01*
X281258945Y-60068664D02*
X281377993Y-60068664D01*
X281377993Y-60068664D02*
X281425612Y-60032950D01*
X281425612Y-60032950D02*
X281449421Y-59997235D01*
X281449421Y-59997235D02*
X281473231Y-59925807D01*
X281473231Y-59925807D02*
X281473231Y-59854378D01*
X281473231Y-59854378D02*
X281449421Y-59782950D01*
X281449421Y-59782950D02*
X281425612Y-59747235D01*
X281425612Y-59747235D02*
X281377993Y-59711521D01*
X281377993Y-59711521D02*
X281282755Y-59675807D01*
X281282755Y-59675807D02*
X281235136Y-59640092D01*
X281235136Y-59640092D02*
X281211326Y-59604378D01*
X281211326Y-59604378D02*
X281187517Y-59532950D01*
X281187517Y-59532950D02*
X281187517Y-59461521D01*
X281187517Y-59461521D02*
X281211326Y-59390092D01*
X281211326Y-59390092D02*
X281235136Y-59354378D01*
X281235136Y-59354378D02*
X281282755Y-59318664D01*
X281282755Y-59318664D02*
X281401802Y-59318664D01*
X281401802Y-59318664D02*
X281473231Y-59354378D01*
X281616088Y-59318664D02*
X281901802Y-59318664D01*
X281758945Y-60068664D02*
X281758945Y-59318664D01*
X280988684Y-64710307D02*
X280822017Y-64710307D01*
X280822017Y-65103164D02*
X280822017Y-64353164D01*
X280822017Y-64353164D02*
X281060112Y-64353164D01*
X281464874Y-64603164D02*
X281464874Y-65103164D01*
X281345826Y-64317450D02*
X281226779Y-64853164D01*
X281226779Y-64853164D02*
X281536302Y-64853164D01*
X265725302Y-65085164D02*
X265725302Y-64335164D01*
X265725302Y-64335164D02*
X265844350Y-64335164D01*
X265844350Y-64335164D02*
X265915778Y-64370878D01*
X265915778Y-64370878D02*
X265963397Y-64442307D01*
X265963397Y-64442307D02*
X265987207Y-64513735D01*
X265987207Y-64513735D02*
X266011016Y-64656592D01*
X266011016Y-64656592D02*
X266011016Y-64763735D01*
X266011016Y-64763735D02*
X265987207Y-64906592D01*
X265987207Y-64906592D02*
X265963397Y-64978021D01*
X265963397Y-64978021D02*
X265915778Y-65049450D01*
X265915778Y-65049450D02*
X265844350Y-65085164D01*
X265844350Y-65085164D02*
X265725302Y-65085164D01*
X266487207Y-65085164D02*
X266201493Y-65085164D01*
X266344350Y-65085164D02*
X266344350Y-64335164D01*
X266344350Y-64335164D02*
X266296731Y-64442307D01*
X266296731Y-64442307D02*
X266249112Y-64513735D01*
X266249112Y-64513735D02*
X266201493Y-64549450D01*
X265686302Y-75253164D02*
X265686302Y-74503164D01*
X265686302Y-74503164D02*
X265805350Y-74503164D01*
X265805350Y-74503164D02*
X265876778Y-74538878D01*
X265876778Y-74538878D02*
X265924397Y-74610307D01*
X265924397Y-74610307D02*
X265948207Y-74681735D01*
X265948207Y-74681735D02*
X265972016Y-74824592D01*
X265972016Y-74824592D02*
X265972016Y-74931735D01*
X265972016Y-74931735D02*
X265948207Y-75074592D01*
X265948207Y-75074592D02*
X265924397Y-75146021D01*
X265924397Y-75146021D02*
X265876778Y-75217450D01*
X265876778Y-75217450D02*
X265805350Y-75253164D01*
X265805350Y-75253164D02*
X265686302Y-75253164D01*
X266138683Y-74503164D02*
X266472016Y-74503164D01*
X266472016Y-74503164D02*
X266257731Y-75253164D01*
X265922016Y-72633735D02*
X265898207Y-72669450D01*
X265898207Y-72669450D02*
X265826778Y-72705164D01*
X265826778Y-72705164D02*
X265779159Y-72705164D01*
X265779159Y-72705164D02*
X265707731Y-72669450D01*
X265707731Y-72669450D02*
X265660112Y-72598021D01*
X265660112Y-72598021D02*
X265636302Y-72526592D01*
X265636302Y-72526592D02*
X265612493Y-72383735D01*
X265612493Y-72383735D02*
X265612493Y-72276592D01*
X265612493Y-72276592D02*
X265636302Y-72133735D01*
X265636302Y-72133735D02*
X265660112Y-72062307D01*
X265660112Y-72062307D02*
X265707731Y-71990878D01*
X265707731Y-71990878D02*
X265779159Y-71955164D01*
X265779159Y-71955164D02*
X265826778Y-71955164D01*
X265826778Y-71955164D02*
X265898207Y-71990878D01*
X265898207Y-71990878D02*
X265922016Y-72026592D01*
X266350588Y-71955164D02*
X266255350Y-71955164D01*
X266255350Y-71955164D02*
X266207731Y-71990878D01*
X266207731Y-71990878D02*
X266183921Y-72026592D01*
X266183921Y-72026592D02*
X266136302Y-72133735D01*
X266136302Y-72133735D02*
X266112493Y-72276592D01*
X266112493Y-72276592D02*
X266112493Y-72562307D01*
X266112493Y-72562307D02*
X266136302Y-72633735D01*
X266136302Y-72633735D02*
X266160112Y-72669450D01*
X266160112Y-72669450D02*
X266207731Y-72705164D01*
X266207731Y-72705164D02*
X266302969Y-72705164D01*
X266302969Y-72705164D02*
X266350588Y-72669450D01*
X266350588Y-72669450D02*
X266374397Y-72633735D01*
X266374397Y-72633735D02*
X266398207Y-72562307D01*
X266398207Y-72562307D02*
X266398207Y-72383735D01*
X266398207Y-72383735D02*
X266374397Y-72312307D01*
X266374397Y-72312307D02*
X266350588Y-72276592D01*
X266350588Y-72276592D02*
X266302969Y-72240878D01*
X266302969Y-72240878D02*
X266207731Y-72240878D01*
X266207731Y-72240878D02*
X266160112Y-72276592D01*
X266160112Y-72276592D02*
X266136302Y-72312307D01*
X266136302Y-72312307D02*
X266112493Y-72383735D01*
X281002969Y-79960307D02*
X281074397Y-79996021D01*
X281074397Y-79996021D02*
X281098207Y-80031735D01*
X281098207Y-80031735D02*
X281122016Y-80103164D01*
X281122016Y-80103164D02*
X281122016Y-80210307D01*
X281122016Y-80210307D02*
X281098207Y-80281735D01*
X281098207Y-80281735D02*
X281074397Y-80317450D01*
X281074397Y-80317450D02*
X281026778Y-80353164D01*
X281026778Y-80353164D02*
X280836302Y-80353164D01*
X280836302Y-80353164D02*
X280836302Y-79603164D01*
X280836302Y-79603164D02*
X281002969Y-79603164D01*
X281002969Y-79603164D02*
X281050588Y-79638878D01*
X281050588Y-79638878D02*
X281074397Y-79674592D01*
X281074397Y-79674592D02*
X281098207Y-79746021D01*
X281098207Y-79746021D02*
X281098207Y-79817450D01*
X281098207Y-79817450D02*
X281074397Y-79888878D01*
X281074397Y-79888878D02*
X281050588Y-79924592D01*
X281050588Y-79924592D02*
X281002969Y-79960307D01*
X281002969Y-79960307D02*
X280836302Y-79960307D01*
X281312493Y-79674592D02*
X281336302Y-79638878D01*
X281336302Y-79638878D02*
X281383921Y-79603164D01*
X281383921Y-79603164D02*
X281502969Y-79603164D01*
X281502969Y-79603164D02*
X281550588Y-79638878D01*
X281550588Y-79638878D02*
X281574397Y-79674592D01*
X281574397Y-79674592D02*
X281598207Y-79746021D01*
X281598207Y-79746021D02*
X281598207Y-79817450D01*
X281598207Y-79817450D02*
X281574397Y-79924592D01*
X281574397Y-79924592D02*
X281288683Y-80353164D01*
X281288683Y-80353164D02*
X281598207Y-80353164D01*
X265852969Y-82535807D02*
X265924397Y-82571521D01*
X265924397Y-82571521D02*
X265948207Y-82607235D01*
X265948207Y-82607235D02*
X265972016Y-82678664D01*
X265972016Y-82678664D02*
X265972016Y-82785807D01*
X265972016Y-82785807D02*
X265948207Y-82857235D01*
X265948207Y-82857235D02*
X265924397Y-82892950D01*
X265924397Y-82892950D02*
X265876778Y-82928664D01*
X265876778Y-82928664D02*
X265686302Y-82928664D01*
X265686302Y-82928664D02*
X265686302Y-82178664D01*
X265686302Y-82178664D02*
X265852969Y-82178664D01*
X265852969Y-82178664D02*
X265900588Y-82214378D01*
X265900588Y-82214378D02*
X265924397Y-82250092D01*
X265924397Y-82250092D02*
X265948207Y-82321521D01*
X265948207Y-82321521D02*
X265948207Y-82392950D01*
X265948207Y-82392950D02*
X265924397Y-82464378D01*
X265924397Y-82464378D02*
X265900588Y-82500092D01*
X265900588Y-82500092D02*
X265852969Y-82535807D01*
X265852969Y-82535807D02*
X265686302Y-82535807D01*
X266424397Y-82178664D02*
X266186302Y-82178664D01*
X266186302Y-82178664D02*
X266162493Y-82535807D01*
X266162493Y-82535807D02*
X266186302Y-82500092D01*
X266186302Y-82500092D02*
X266233921Y-82464378D01*
X266233921Y-82464378D02*
X266352969Y-82464378D01*
X266352969Y-82464378D02*
X266400588Y-82500092D01*
X266400588Y-82500092D02*
X266424397Y-82535807D01*
X266424397Y-82535807D02*
X266448207Y-82607235D01*
X266448207Y-82607235D02*
X266448207Y-82785807D01*
X266448207Y-82785807D02*
X266424397Y-82857235D01*
X266424397Y-82857235D02*
X266400588Y-82892950D01*
X266400588Y-82892950D02*
X266352969Y-82928664D01*
X266352969Y-82928664D02*
X266233921Y-82928664D01*
X266233921Y-82928664D02*
X266186302Y-82892950D01*
X266186302Y-82892950D02*
X266162493Y-82857235D01*
X265649897Y-59354378D02*
X265602278Y-59318664D01*
X265602278Y-59318664D02*
X265530849Y-59318664D01*
X265530849Y-59318664D02*
X265459421Y-59354378D01*
X265459421Y-59354378D02*
X265411802Y-59425807D01*
X265411802Y-59425807D02*
X265387992Y-59497235D01*
X265387992Y-59497235D02*
X265364183Y-59640092D01*
X265364183Y-59640092D02*
X265364183Y-59747235D01*
X265364183Y-59747235D02*
X265387992Y-59890092D01*
X265387992Y-59890092D02*
X265411802Y-59961521D01*
X265411802Y-59961521D02*
X265459421Y-60032950D01*
X265459421Y-60032950D02*
X265530849Y-60068664D01*
X265530849Y-60068664D02*
X265578468Y-60068664D01*
X265578468Y-60068664D02*
X265649897Y-60032950D01*
X265649897Y-60032950D02*
X265673706Y-59997235D01*
X265673706Y-59997235D02*
X265673706Y-59747235D01*
X265673706Y-59747235D02*
X265578468Y-59747235D01*
X265887992Y-60068664D02*
X265887992Y-59318664D01*
X265887992Y-59318664D02*
X266173706Y-60068664D01*
X266173706Y-60068664D02*
X266173706Y-59318664D01*
X266411802Y-60068664D02*
X266411802Y-59318664D01*
X266411802Y-59318664D02*
X266530850Y-59318664D01*
X266530850Y-59318664D02*
X266602278Y-59354378D01*
X266602278Y-59354378D02*
X266649897Y-59425807D01*
X266649897Y-59425807D02*
X266673707Y-59497235D01*
X266673707Y-59497235D02*
X266697516Y-59640092D01*
X266697516Y-59640092D02*
X266697516Y-59747235D01*
X266697516Y-59747235D02*
X266673707Y-59890092D01*
X266673707Y-59890092D02*
X266649897Y-59961521D01*
X266649897Y-59961521D02*
X266602278Y-60032950D01*
X266602278Y-60032950D02*
X266530850Y-60068664D01*
X266530850Y-60068664D02*
X266411802Y-60068664D01*
X265710112Y-77455807D02*
X265876779Y-77455807D01*
X265948207Y-77848664D02*
X265710112Y-77848664D01*
X265710112Y-77848664D02*
X265710112Y-77098664D01*
X265710112Y-77098664D02*
X265948207Y-77098664D01*
X266376779Y-77098664D02*
X266281541Y-77098664D01*
X266281541Y-77098664D02*
X266233922Y-77134378D01*
X266233922Y-77134378D02*
X266210112Y-77170092D01*
X266210112Y-77170092D02*
X266162493Y-77277235D01*
X266162493Y-77277235D02*
X266138684Y-77420092D01*
X266138684Y-77420092D02*
X266138684Y-77705807D01*
X266138684Y-77705807D02*
X266162493Y-77777235D01*
X266162493Y-77777235D02*
X266186303Y-77812950D01*
X266186303Y-77812950D02*
X266233922Y-77848664D01*
X266233922Y-77848664D02*
X266329160Y-77848664D01*
X266329160Y-77848664D02*
X266376779Y-77812950D01*
X266376779Y-77812950D02*
X266400588Y-77777235D01*
X266400588Y-77777235D02*
X266424398Y-77705807D01*
X266424398Y-77705807D02*
X266424398Y-77527235D01*
X266424398Y-77527235D02*
X266400588Y-77455807D01*
X266400588Y-77455807D02*
X266376779Y-77420092D01*
X266376779Y-77420092D02*
X266329160Y-77384378D01*
X266329160Y-77384378D02*
X266233922Y-77384378D01*
X266233922Y-77384378D02*
X266186303Y-77420092D01*
X266186303Y-77420092D02*
X266162493Y-77455807D01*
X266162493Y-77455807D02*
X266138684Y-77527235D01*
X265713397Y-61894378D02*
X265665778Y-61858664D01*
X265665778Y-61858664D02*
X265594349Y-61858664D01*
X265594349Y-61858664D02*
X265522921Y-61894378D01*
X265522921Y-61894378D02*
X265475302Y-61965807D01*
X265475302Y-61965807D02*
X265451492Y-62037235D01*
X265451492Y-62037235D02*
X265427683Y-62180092D01*
X265427683Y-62180092D02*
X265427683Y-62287235D01*
X265427683Y-62287235D02*
X265451492Y-62430092D01*
X265451492Y-62430092D02*
X265475302Y-62501521D01*
X265475302Y-62501521D02*
X265522921Y-62572950D01*
X265522921Y-62572950D02*
X265594349Y-62608664D01*
X265594349Y-62608664D02*
X265641968Y-62608664D01*
X265641968Y-62608664D02*
X265713397Y-62572950D01*
X265713397Y-62572950D02*
X265737206Y-62537235D01*
X265737206Y-62537235D02*
X265737206Y-62287235D01*
X265737206Y-62287235D02*
X265641968Y-62287235D01*
X265951492Y-62608664D02*
X265951492Y-61858664D01*
X265951492Y-61858664D02*
X266237206Y-62608664D01*
X266237206Y-62608664D02*
X266237206Y-61858664D01*
X266475302Y-62608664D02*
X266475302Y-61858664D01*
X266475302Y-61858664D02*
X266594350Y-61858664D01*
X266594350Y-61858664D02*
X266665778Y-61894378D01*
X266665778Y-61894378D02*
X266713397Y-61965807D01*
X266713397Y-61965807D02*
X266737207Y-62037235D01*
X266737207Y-62037235D02*
X266761016Y-62180092D01*
X266761016Y-62180092D02*
X266761016Y-62287235D01*
X266761016Y-62287235D02*
X266737207Y-62430092D01*
X266737207Y-62430092D02*
X266713397Y-62501521D01*
X266713397Y-62501521D02*
X266665778Y-62572950D01*
X266665778Y-62572950D02*
X266594350Y-62608664D01*
X266594350Y-62608664D02*
X266475302Y-62608664D01*
X281002969Y-77455807D02*
X281074397Y-77491521D01*
X281074397Y-77491521D02*
X281098207Y-77527235D01*
X281098207Y-77527235D02*
X281122016Y-77598664D01*
X281122016Y-77598664D02*
X281122016Y-77705807D01*
X281122016Y-77705807D02*
X281098207Y-77777235D01*
X281098207Y-77777235D02*
X281074397Y-77812950D01*
X281074397Y-77812950D02*
X281026778Y-77848664D01*
X281026778Y-77848664D02*
X280836302Y-77848664D01*
X280836302Y-77848664D02*
X280836302Y-77098664D01*
X280836302Y-77098664D02*
X281002969Y-77098664D01*
X281002969Y-77098664D02*
X281050588Y-77134378D01*
X281050588Y-77134378D02*
X281074397Y-77170092D01*
X281074397Y-77170092D02*
X281098207Y-77241521D01*
X281098207Y-77241521D02*
X281098207Y-77312950D01*
X281098207Y-77312950D02*
X281074397Y-77384378D01*
X281074397Y-77384378D02*
X281050588Y-77420092D01*
X281050588Y-77420092D02*
X281002969Y-77455807D01*
X281002969Y-77455807D02*
X280836302Y-77455807D01*
X281288683Y-77098664D02*
X281598207Y-77098664D01*
X281598207Y-77098664D02*
X281431540Y-77384378D01*
X281431540Y-77384378D02*
X281502969Y-77384378D01*
X281502969Y-77384378D02*
X281550588Y-77420092D01*
X281550588Y-77420092D02*
X281574397Y-77455807D01*
X281574397Y-77455807D02*
X281598207Y-77527235D01*
X281598207Y-77527235D02*
X281598207Y-77705807D01*
X281598207Y-77705807D02*
X281574397Y-77777235D01*
X281574397Y-77777235D02*
X281550588Y-77812950D01*
X281550588Y-77812950D02*
X281502969Y-77848664D01*
X281502969Y-77848664D02*
X281360112Y-77848664D01*
X281360112Y-77848664D02*
X281312493Y-77812950D01*
X281312493Y-77812950D02*
X281288683Y-77777235D01*
X265576779Y-51992307D02*
X265648207Y-52028021D01*
X265648207Y-52028021D02*
X265672017Y-52063735D01*
X265672017Y-52063735D02*
X265695826Y-52135164D01*
X265695826Y-52135164D02*
X265695826Y-52242307D01*
X265695826Y-52242307D02*
X265672017Y-52313735D01*
X265672017Y-52313735D02*
X265648207Y-52349450D01*
X265648207Y-52349450D02*
X265600588Y-52385164D01*
X265600588Y-52385164D02*
X265410112Y-52385164D01*
X265410112Y-52385164D02*
X265410112Y-51635164D01*
X265410112Y-51635164D02*
X265576779Y-51635164D01*
X265576779Y-51635164D02*
X265624398Y-51670878D01*
X265624398Y-51670878D02*
X265648207Y-51706592D01*
X265648207Y-51706592D02*
X265672017Y-51778021D01*
X265672017Y-51778021D02*
X265672017Y-51849450D01*
X265672017Y-51849450D02*
X265648207Y-51920878D01*
X265648207Y-51920878D02*
X265624398Y-51956592D01*
X265624398Y-51956592D02*
X265576779Y-51992307D01*
X265576779Y-51992307D02*
X265410112Y-51992307D01*
X265886303Y-52170878D02*
X266124398Y-52170878D01*
X265838684Y-52385164D02*
X266005350Y-51635164D01*
X266005350Y-51635164D02*
X266172017Y-52385164D01*
X266267255Y-51635164D02*
X266552969Y-51635164D01*
X266410112Y-52385164D02*
X266410112Y-51635164D01*
X266719635Y-52099450D02*
X267100588Y-52099450D01*
X281002969Y-82510307D02*
X281074397Y-82546021D01*
X281074397Y-82546021D02*
X281098207Y-82581735D01*
X281098207Y-82581735D02*
X281122016Y-82653164D01*
X281122016Y-82653164D02*
X281122016Y-82760307D01*
X281122016Y-82760307D02*
X281098207Y-82831735D01*
X281098207Y-82831735D02*
X281074397Y-82867450D01*
X281074397Y-82867450D02*
X281026778Y-82903164D01*
X281026778Y-82903164D02*
X280836302Y-82903164D01*
X280836302Y-82903164D02*
X280836302Y-82153164D01*
X280836302Y-82153164D02*
X281002969Y-82153164D01*
X281002969Y-82153164D02*
X281050588Y-82188878D01*
X281050588Y-82188878D02*
X281074397Y-82224592D01*
X281074397Y-82224592D02*
X281098207Y-82296021D01*
X281098207Y-82296021D02*
X281098207Y-82367450D01*
X281098207Y-82367450D02*
X281074397Y-82438878D01*
X281074397Y-82438878D02*
X281050588Y-82474592D01*
X281050588Y-82474592D02*
X281002969Y-82510307D01*
X281002969Y-82510307D02*
X280836302Y-82510307D01*
X281550588Y-82153164D02*
X281455350Y-82153164D01*
X281455350Y-82153164D02*
X281407731Y-82188878D01*
X281407731Y-82188878D02*
X281383921Y-82224592D01*
X281383921Y-82224592D02*
X281336302Y-82331735D01*
X281336302Y-82331735D02*
X281312493Y-82474592D01*
X281312493Y-82474592D02*
X281312493Y-82760307D01*
X281312493Y-82760307D02*
X281336302Y-82831735D01*
X281336302Y-82831735D02*
X281360112Y-82867450D01*
X281360112Y-82867450D02*
X281407731Y-82903164D01*
X281407731Y-82903164D02*
X281502969Y-82903164D01*
X281502969Y-82903164D02*
X281550588Y-82867450D01*
X281550588Y-82867450D02*
X281574397Y-82831735D01*
X281574397Y-82831735D02*
X281598207Y-82760307D01*
X281598207Y-82760307D02*
X281598207Y-82581735D01*
X281598207Y-82581735D02*
X281574397Y-82510307D01*
X281574397Y-82510307D02*
X281550588Y-82474592D01*
X281550588Y-82474592D02*
X281502969Y-82438878D01*
X281502969Y-82438878D02*
X281407731Y-82438878D01*
X281407731Y-82438878D02*
X281360112Y-82474592D01*
X281360112Y-82474592D02*
X281336302Y-82510307D01*
X281336302Y-82510307D02*
X281312493Y-82581735D01*
X280604184Y-61795164D02*
X280770850Y-62545164D01*
X280770850Y-62545164D02*
X280937517Y-61795164D01*
X281389897Y-62473735D02*
X281366088Y-62509450D01*
X281366088Y-62509450D02*
X281294659Y-62545164D01*
X281294659Y-62545164D02*
X281247040Y-62545164D01*
X281247040Y-62545164D02*
X281175612Y-62509450D01*
X281175612Y-62509450D02*
X281127993Y-62438021D01*
X281127993Y-62438021D02*
X281104183Y-62366592D01*
X281104183Y-62366592D02*
X281080374Y-62223735D01*
X281080374Y-62223735D02*
X281080374Y-62116592D01*
X281080374Y-62116592D02*
X281104183Y-61973735D01*
X281104183Y-61973735D02*
X281127993Y-61902307D01*
X281127993Y-61902307D02*
X281175612Y-61830878D01*
X281175612Y-61830878D02*
X281247040Y-61795164D01*
X281247040Y-61795164D02*
X281294659Y-61795164D01*
X281294659Y-61795164D02*
X281366088Y-61830878D01*
X281366088Y-61830878D02*
X281389897Y-61866592D01*
X281889897Y-62473735D02*
X281866088Y-62509450D01*
X281866088Y-62509450D02*
X281794659Y-62545164D01*
X281794659Y-62545164D02*
X281747040Y-62545164D01*
X281747040Y-62545164D02*
X281675612Y-62509450D01*
X281675612Y-62509450D02*
X281627993Y-62438021D01*
X281627993Y-62438021D02*
X281604183Y-62366592D01*
X281604183Y-62366592D02*
X281580374Y-62223735D01*
X281580374Y-62223735D02*
X281580374Y-62116592D01*
X281580374Y-62116592D02*
X281604183Y-61973735D01*
X281604183Y-61973735D02*
X281627993Y-61902307D01*
X281627993Y-61902307D02*
X281675612Y-61830878D01*
X281675612Y-61830878D02*
X281747040Y-61795164D01*
X281747040Y-61795164D02*
X281794659Y-61795164D01*
X281794659Y-61795164D02*
X281866088Y-61830878D01*
X281866088Y-61830878D02*
X281889897Y-61866592D01*
X265686302Y-70203164D02*
X265686302Y-69453164D01*
X265686302Y-69453164D02*
X265805350Y-69453164D01*
X265805350Y-69453164D02*
X265876778Y-69488878D01*
X265876778Y-69488878D02*
X265924397Y-69560307D01*
X265924397Y-69560307D02*
X265948207Y-69631735D01*
X265948207Y-69631735D02*
X265972016Y-69774592D01*
X265972016Y-69774592D02*
X265972016Y-69881735D01*
X265972016Y-69881735D02*
X265948207Y-70024592D01*
X265948207Y-70024592D02*
X265924397Y-70096021D01*
X265924397Y-70096021D02*
X265876778Y-70167450D01*
X265876778Y-70167450D02*
X265805350Y-70203164D01*
X265805350Y-70203164D02*
X265686302Y-70203164D01*
X266400588Y-69703164D02*
X266400588Y-70203164D01*
X266281540Y-69417450D02*
X266162493Y-69953164D01*
X266162493Y-69953164D02*
X266472016Y-69953164D01*
X265686302Y-54925164D02*
X265686302Y-54175164D01*
X265686302Y-54175164D02*
X265805350Y-54175164D01*
X265805350Y-54175164D02*
X265876778Y-54210878D01*
X265876778Y-54210878D02*
X265924397Y-54282307D01*
X265924397Y-54282307D02*
X265948207Y-54353735D01*
X265948207Y-54353735D02*
X265972016Y-54496592D01*
X265972016Y-54496592D02*
X265972016Y-54603735D01*
X265972016Y-54603735D02*
X265948207Y-54746592D01*
X265948207Y-54746592D02*
X265924397Y-54818021D01*
X265924397Y-54818021D02*
X265876778Y-54889450D01*
X265876778Y-54889450D02*
X265805350Y-54925164D01*
X265805350Y-54925164D02*
X265686302Y-54925164D01*
X266138683Y-54175164D02*
X266448207Y-54175164D01*
X266448207Y-54175164D02*
X266281540Y-54460878D01*
X266281540Y-54460878D02*
X266352969Y-54460878D01*
X266352969Y-54460878D02*
X266400588Y-54496592D01*
X266400588Y-54496592D02*
X266424397Y-54532307D01*
X266424397Y-54532307D02*
X266448207Y-54603735D01*
X266448207Y-54603735D02*
X266448207Y-54782307D01*
X266448207Y-54782307D02*
X266424397Y-54853735D01*
X266424397Y-54853735D02*
X266400588Y-54889450D01*
X266400588Y-54889450D02*
X266352969Y-54925164D01*
X266352969Y-54925164D02*
X266210112Y-54925164D01*
X266210112Y-54925164D02*
X266162493Y-54889450D01*
X266162493Y-54889450D02*
X266138683Y-54853735D01*
X280938684Y-67232307D02*
X280772017Y-67232307D01*
X280772017Y-67625164D02*
X280772017Y-66875164D01*
X280772017Y-66875164D02*
X281010112Y-66875164D01*
X281438683Y-66875164D02*
X281200588Y-66875164D01*
X281200588Y-66875164D02*
X281176779Y-67232307D01*
X281176779Y-67232307D02*
X281200588Y-67196592D01*
X281200588Y-67196592D02*
X281248207Y-67160878D01*
X281248207Y-67160878D02*
X281367255Y-67160878D01*
X281367255Y-67160878D02*
X281414874Y-67196592D01*
X281414874Y-67196592D02*
X281438683Y-67232307D01*
X281438683Y-67232307D02*
X281462493Y-67303735D01*
X281462493Y-67303735D02*
X281462493Y-67482307D01*
X281462493Y-67482307D02*
X281438683Y-67553735D01*
X281438683Y-67553735D02*
X281414874Y-67589450D01*
X281414874Y-67589450D02*
X281367255Y-67625164D01*
X281367255Y-67625164D02*
X281248207Y-67625164D01*
X281248207Y-67625164D02*
X281200588Y-67589450D01*
X281200588Y-67589450D02*
X281176779Y-67553735D01*
D10*
D11*
X280988684Y-69772307D02*
X280822017Y-69772307D01*
X280822017Y-70165164D02*
X280822017Y-69415164D01*
X280822017Y-69415164D02*
X281060112Y-69415164D01*
X281464874Y-69415164D02*
X281369636Y-69415164D01*
X281369636Y-69415164D02*
X281322017Y-69450878D01*
X281322017Y-69450878D02*
X281298207Y-69486592D01*
X281298207Y-69486592D02*
X281250588Y-69593735D01*
X281250588Y-69593735D02*
X281226779Y-69736592D01*
X281226779Y-69736592D02*
X281226779Y-70022307D01*
X281226779Y-70022307D02*
X281250588Y-70093735D01*
X281250588Y-70093735D02*
X281274398Y-70129450D01*
X281274398Y-70129450D02*
X281322017Y-70165164D01*
X281322017Y-70165164D02*
X281417255Y-70165164D01*
X281417255Y-70165164D02*
X281464874Y-70129450D01*
X281464874Y-70129450D02*
X281488683Y-70093735D01*
X281488683Y-70093735D02*
X281512493Y-70022307D01*
X281512493Y-70022307D02*
X281512493Y-69843735D01*
X281512493Y-69843735D02*
X281488683Y-69772307D01*
X281488683Y-69772307D02*
X281464874Y-69736592D01*
X281464874Y-69736592D02*
X281417255Y-69700878D01*
X281417255Y-69700878D02*
X281322017Y-69700878D01*
X281322017Y-69700878D02*
X281274398Y-69736592D01*
X281274398Y-69736592D02*
X281250588Y-69772307D01*
X281250588Y-69772307D02*
X281226779Y-69843735D01*
D10*
X270462550Y-51995009D02*
X270605407Y-52042628D01*
X270605407Y-52042628D02*
X270653026Y-52090247D01*
X270653026Y-52090247D02*
X270700645Y-52185485D01*
X270700645Y-52185485D02*
X270700645Y-52328342D01*
X270700645Y-52328342D02*
X270653026Y-52423580D01*
X270653026Y-52423580D02*
X270605407Y-52471200D01*
X270605407Y-52471200D02*
X270510169Y-52518819D01*
X270510169Y-52518819D02*
X270129217Y-52518819D01*
X270129217Y-52518819D02*
X270129217Y-51518819D01*
X270129217Y-51518819D02*
X270462550Y-51518819D01*
X270462550Y-51518819D02*
X270557788Y-51566438D01*
X270557788Y-51566438D02*
X270605407Y-51614057D01*
X270605407Y-51614057D02*
X270653026Y-51709295D01*
X270653026Y-51709295D02*
X270653026Y-51804533D01*
X270653026Y-51804533D02*
X270605407Y-51899771D01*
X270605407Y-51899771D02*
X270557788Y-51947390D01*
X270557788Y-51947390D02*
X270462550Y-51995009D01*
X270462550Y-51995009D02*
X270129217Y-51995009D01*
X271129217Y-52518819D02*
X271129217Y-51518819D01*
X271129217Y-51518819D02*
X271462550Y-52233104D01*
X271462550Y-52233104D02*
X271795883Y-51518819D01*
X271795883Y-51518819D02*
X271795883Y-52518819D01*
X272272074Y-52518819D02*
X272272074Y-51518819D01*
X272272074Y-51518819D02*
X272653026Y-51518819D01*
X272653026Y-51518819D02*
X272748264Y-51566438D01*
X272748264Y-51566438D02*
X272795883Y-51614057D01*
X272795883Y-51614057D02*
X272843502Y-51709295D01*
X272843502Y-51709295D02*
X272843502Y-51852152D01*
X272843502Y-51852152D02*
X272795883Y-51947390D01*
X272795883Y-51947390D02*
X272748264Y-51995009D01*
X272748264Y-51995009D02*
X272653026Y-52042628D01*
X272653026Y-52042628D02*
X272272074Y-52042628D01*
D11*
X265852969Y-79932307D02*
X265924397Y-79968021D01*
X265924397Y-79968021D02*
X265948207Y-80003735D01*
X265948207Y-80003735D02*
X265972016Y-80075164D01*
X265972016Y-80075164D02*
X265972016Y-80182307D01*
X265972016Y-80182307D02*
X265948207Y-80253735D01*
X265948207Y-80253735D02*
X265924397Y-80289450D01*
X265924397Y-80289450D02*
X265876778Y-80325164D01*
X265876778Y-80325164D02*
X265686302Y-80325164D01*
X265686302Y-80325164D02*
X265686302Y-79575164D01*
X265686302Y-79575164D02*
X265852969Y-79575164D01*
X265852969Y-79575164D02*
X265900588Y-79610878D01*
X265900588Y-79610878D02*
X265924397Y-79646592D01*
X265924397Y-79646592D02*
X265948207Y-79718021D01*
X265948207Y-79718021D02*
X265948207Y-79789450D01*
X265948207Y-79789450D02*
X265924397Y-79860878D01*
X265924397Y-79860878D02*
X265900588Y-79896592D01*
X265900588Y-79896592D02*
X265852969Y-79932307D01*
X265852969Y-79932307D02*
X265686302Y-79932307D01*
X266400588Y-79825164D02*
X266400588Y-80325164D01*
X266281540Y-79539450D02*
X266162493Y-80075164D01*
X266162493Y-80075164D02*
X266472016Y-80075164D01*
X280792279Y-51992307D02*
X280863707Y-52028021D01*
X280863707Y-52028021D02*
X280887517Y-52063735D01*
X280887517Y-52063735D02*
X280911326Y-52135164D01*
X280911326Y-52135164D02*
X280911326Y-52242307D01*
X280911326Y-52242307D02*
X280887517Y-52313735D01*
X280887517Y-52313735D02*
X280863707Y-52349450D01*
X280863707Y-52349450D02*
X280816088Y-52385164D01*
X280816088Y-52385164D02*
X280625612Y-52385164D01*
X280625612Y-52385164D02*
X280625612Y-51635164D01*
X280625612Y-51635164D02*
X280792279Y-51635164D01*
X280792279Y-51635164D02*
X280839898Y-51670878D01*
X280839898Y-51670878D02*
X280863707Y-51706592D01*
X280863707Y-51706592D02*
X280887517Y-51778021D01*
X280887517Y-51778021D02*
X280887517Y-51849450D01*
X280887517Y-51849450D02*
X280863707Y-51920878D01*
X280863707Y-51920878D02*
X280839898Y-51956592D01*
X280839898Y-51956592D02*
X280792279Y-51992307D01*
X280792279Y-51992307D02*
X280625612Y-51992307D01*
X281101803Y-52170878D02*
X281339898Y-52170878D01*
X281054184Y-52385164D02*
X281220850Y-51635164D01*
X281220850Y-51635164D02*
X281387517Y-52385164D01*
X281482755Y-51635164D02*
X281768469Y-51635164D01*
X281625612Y-52385164D02*
X281625612Y-51635164D01*
X281935135Y-52099450D02*
X282316088Y-52099450D01*
X282125611Y-52385164D02*
X282125611Y-51813735D01*
X265736302Y-57453164D02*
X265736302Y-56703164D01*
X265736302Y-56703164D02*
X265855350Y-56703164D01*
X265855350Y-56703164D02*
X265926778Y-56738878D01*
X265926778Y-56738878D02*
X265974397Y-56810307D01*
X265974397Y-56810307D02*
X265998207Y-56881735D01*
X265998207Y-56881735D02*
X266022016Y-57024592D01*
X266022016Y-57024592D02*
X266022016Y-57131735D01*
X266022016Y-57131735D02*
X265998207Y-57274592D01*
X265998207Y-57274592D02*
X265974397Y-57346021D01*
X265974397Y-57346021D02*
X265926778Y-57417450D01*
X265926778Y-57417450D02*
X265855350Y-57453164D01*
X265855350Y-57453164D02*
X265736302Y-57453164D01*
X266212493Y-56774592D02*
X266236302Y-56738878D01*
X266236302Y-56738878D02*
X266283921Y-56703164D01*
X266283921Y-56703164D02*
X266402969Y-56703164D01*
X266402969Y-56703164D02*
X266450588Y-56738878D01*
X266450588Y-56738878D02*
X266474397Y-56774592D01*
X266474397Y-56774592D02*
X266498207Y-56846021D01*
X266498207Y-56846021D02*
X266498207Y-56917450D01*
X266498207Y-56917450D02*
X266474397Y-57024592D01*
X266474397Y-57024592D02*
X266188683Y-57453164D01*
X266188683Y-57453164D02*
X266498207Y-57453164D01*
D10*
%TO.C,C1*%
X255008383Y-85461080D02*
X254960764Y-85508700D01*
X254960764Y-85508700D02*
X254817907Y-85556319D01*
X254817907Y-85556319D02*
X254722669Y-85556319D01*
X254722669Y-85556319D02*
X254579812Y-85508700D01*
X254579812Y-85508700D02*
X254484574Y-85413461D01*
X254484574Y-85413461D02*
X254436955Y-85318223D01*
X254436955Y-85318223D02*
X254389336Y-85127747D01*
X254389336Y-85127747D02*
X254389336Y-84984890D01*
X254389336Y-84984890D02*
X254436955Y-84794414D01*
X254436955Y-84794414D02*
X254484574Y-84699176D01*
X254484574Y-84699176D02*
X254579812Y-84603938D01*
X254579812Y-84603938D02*
X254722669Y-84556319D01*
X254722669Y-84556319D02*
X254817907Y-84556319D01*
X254817907Y-84556319D02*
X254960764Y-84603938D01*
X254960764Y-84603938D02*
X255008383Y-84651557D01*
X255960764Y-85556319D02*
X255389336Y-85556319D01*
X255675050Y-85556319D02*
X255675050Y-84556319D01*
X255675050Y-84556319D02*
X255579812Y-84699176D01*
X255579812Y-84699176D02*
X255484574Y-84794414D01*
X255484574Y-84794414D02*
X255389336Y-84842033D01*
%TO.C,SW49*%
X253468368Y-67137619D02*
X253135035Y-66661428D01*
X252896940Y-67137619D02*
X252896940Y-66137619D01*
X252896940Y-66137619D02*
X253277892Y-66137619D01*
X253277892Y-66137619D02*
X253373130Y-66185238D01*
X253373130Y-66185238D02*
X253420749Y-66232857D01*
X253420749Y-66232857D02*
X253468368Y-66328095D01*
X253468368Y-66328095D02*
X253468368Y-66470952D01*
X253468368Y-66470952D02*
X253420749Y-66566190D01*
X253420749Y-66566190D02*
X253373130Y-66613809D01*
X253373130Y-66613809D02*
X253277892Y-66661428D01*
X253277892Y-66661428D02*
X252896940Y-66661428D01*
X253896940Y-66613809D02*
X254230273Y-66613809D01*
X254373130Y-67137619D02*
X253896940Y-67137619D01*
X253896940Y-67137619D02*
X253896940Y-66137619D01*
X253896940Y-66137619D02*
X254373130Y-66137619D01*
X254754083Y-67090000D02*
X254896940Y-67137619D01*
X254896940Y-67137619D02*
X255135035Y-67137619D01*
X255135035Y-67137619D02*
X255230273Y-67090000D01*
X255230273Y-67090000D02*
X255277892Y-67042380D01*
X255277892Y-67042380D02*
X255325511Y-66947142D01*
X255325511Y-66947142D02*
X255325511Y-66851904D01*
X255325511Y-66851904D02*
X255277892Y-66756666D01*
X255277892Y-66756666D02*
X255230273Y-66709047D01*
X255230273Y-66709047D02*
X255135035Y-66661428D01*
X255135035Y-66661428D02*
X254944559Y-66613809D01*
X254944559Y-66613809D02*
X254849321Y-66566190D01*
X254849321Y-66566190D02*
X254801702Y-66518571D01*
X254801702Y-66518571D02*
X254754083Y-66423333D01*
X254754083Y-66423333D02*
X254754083Y-66328095D01*
X254754083Y-66328095D02*
X254801702Y-66232857D01*
X254801702Y-66232857D02*
X254849321Y-66185238D01*
X254849321Y-66185238D02*
X254944559Y-66137619D01*
X254944559Y-66137619D02*
X255182654Y-66137619D01*
X255182654Y-66137619D02*
X255325511Y-66185238D01*
X255754083Y-66613809D02*
X256087416Y-66613809D01*
X256230273Y-67137619D02*
X255754083Y-67137619D01*
X255754083Y-67137619D02*
X255754083Y-66137619D01*
X255754083Y-66137619D02*
X256230273Y-66137619D01*
X256515988Y-66137619D02*
X257087416Y-66137619D01*
X256801702Y-67137619D02*
X256801702Y-66137619D01*
D11*
%TO.C,D50*%
X254584821Y-75588795D02*
X254584821Y-74788795D01*
X254584821Y-74788795D02*
X254775297Y-74788795D01*
X254775297Y-74788795D02*
X254889583Y-74826890D01*
X254889583Y-74826890D02*
X254965773Y-74903080D01*
X254965773Y-74903080D02*
X255003868Y-74979271D01*
X255003868Y-74979271D02*
X255041964Y-75131652D01*
X255041964Y-75131652D02*
X255041964Y-75245938D01*
X255041964Y-75245938D02*
X255003868Y-75398319D01*
X255003868Y-75398319D02*
X254965773Y-75474509D01*
X254965773Y-75474509D02*
X254889583Y-75550700D01*
X254889583Y-75550700D02*
X254775297Y-75588795D01*
X254775297Y-75588795D02*
X254584821Y-75588795D01*
X255765773Y-74788795D02*
X255384821Y-74788795D01*
X255384821Y-74788795D02*
X255346725Y-75169747D01*
X255346725Y-75169747D02*
X255384821Y-75131652D01*
X255384821Y-75131652D02*
X255461011Y-75093557D01*
X255461011Y-75093557D02*
X255651487Y-75093557D01*
X255651487Y-75093557D02*
X255727678Y-75131652D01*
X255727678Y-75131652D02*
X255765773Y-75169747D01*
X255765773Y-75169747D02*
X255803868Y-75245938D01*
X255803868Y-75245938D02*
X255803868Y-75436414D01*
X255803868Y-75436414D02*
X255765773Y-75512604D01*
X255765773Y-75512604D02*
X255727678Y-75550700D01*
X255727678Y-75550700D02*
X255651487Y-75588795D01*
X255651487Y-75588795D02*
X255461011Y-75588795D01*
X255461011Y-75588795D02*
X255384821Y-75550700D01*
X255384821Y-75550700D02*
X255346725Y-75512604D01*
X256299107Y-74788795D02*
X256375297Y-74788795D01*
X256375297Y-74788795D02*
X256451488Y-74826890D01*
X256451488Y-74826890D02*
X256489583Y-74864985D01*
X256489583Y-74864985D02*
X256527678Y-74941176D01*
X256527678Y-74941176D02*
X256565773Y-75093557D01*
X256565773Y-75093557D02*
X256565773Y-75284033D01*
X256565773Y-75284033D02*
X256527678Y-75436414D01*
X256527678Y-75436414D02*
X256489583Y-75512604D01*
X256489583Y-75512604D02*
X256451488Y-75550700D01*
X256451488Y-75550700D02*
X256375297Y-75588795D01*
X256375297Y-75588795D02*
X256299107Y-75588795D01*
X256299107Y-75588795D02*
X256222916Y-75550700D01*
X256222916Y-75550700D02*
X256184821Y-75512604D01*
X256184821Y-75512604D02*
X256146726Y-75436414D01*
X256146726Y-75436414D02*
X256108630Y-75284033D01*
X256108630Y-75284033D02*
X256108630Y-75093557D01*
X256108630Y-75093557D02*
X256146726Y-74941176D01*
X256146726Y-74941176D02*
X256184821Y-74864985D01*
X256184821Y-74864985D02*
X256222916Y-74826890D01*
X256222916Y-74826890D02*
X256299107Y-74788795D01*
%TO.C,D49*%
X254584821Y-80351295D02*
X254584821Y-79551295D01*
X254584821Y-79551295D02*
X254775297Y-79551295D01*
X254775297Y-79551295D02*
X254889583Y-79589390D01*
X254889583Y-79589390D02*
X254965773Y-79665580D01*
X254965773Y-79665580D02*
X255003868Y-79741771D01*
X255003868Y-79741771D02*
X255041964Y-79894152D01*
X255041964Y-79894152D02*
X255041964Y-80008438D01*
X255041964Y-80008438D02*
X255003868Y-80160819D01*
X255003868Y-80160819D02*
X254965773Y-80237009D01*
X254965773Y-80237009D02*
X254889583Y-80313200D01*
X254889583Y-80313200D02*
X254775297Y-80351295D01*
X254775297Y-80351295D02*
X254584821Y-80351295D01*
X255727678Y-79817961D02*
X255727678Y-80351295D01*
X255537202Y-79513200D02*
X255346725Y-80084628D01*
X255346725Y-80084628D02*
X255841964Y-80084628D01*
X256184821Y-80351295D02*
X256337202Y-80351295D01*
X256337202Y-80351295D02*
X256413392Y-80313200D01*
X256413392Y-80313200D02*
X256451488Y-80275104D01*
X256451488Y-80275104D02*
X256527678Y-80160819D01*
X256527678Y-80160819D02*
X256565773Y-80008438D01*
X256565773Y-80008438D02*
X256565773Y-79703676D01*
X256565773Y-79703676D02*
X256527678Y-79627485D01*
X256527678Y-79627485D02*
X256489583Y-79589390D01*
X256489583Y-79589390D02*
X256413392Y-79551295D01*
X256413392Y-79551295D02*
X256261011Y-79551295D01*
X256261011Y-79551295D02*
X256184821Y-79589390D01*
X256184821Y-79589390D02*
X256146726Y-79627485D01*
X256146726Y-79627485D02*
X256108630Y-79703676D01*
X256108630Y-79703676D02*
X256108630Y-79894152D01*
X256108630Y-79894152D02*
X256146726Y-79970342D01*
X256146726Y-79970342D02*
X256184821Y-80008438D01*
X256184821Y-80008438D02*
X256261011Y-80046533D01*
X256261011Y-80046533D02*
X256413392Y-80046533D01*
X256413392Y-80046533D02*
X256489583Y-80008438D01*
X256489583Y-80008438D02*
X256527678Y-79970342D01*
X256527678Y-79970342D02*
X256565773Y-79894152D01*
D10*
%TO.C,U1*%
X262628950Y-50768200D02*
X262628950Y-83788200D01*
X262628950Y-83788200D02*
X265168950Y-83788200D01*
X265168950Y-50768200D02*
X262628950Y-50768200D01*
X265168950Y-83788200D02*
X265168950Y-50768200D01*
X277848950Y-50768200D02*
X277848950Y-83788200D01*
X277848950Y-83788200D02*
X280388950Y-83788200D01*
X280388950Y-50768200D02*
X277848950Y-50768200D01*
X280388950Y-53308200D02*
X262628950Y-53308200D01*
X280388950Y-83788200D02*
X280388950Y-50768200D01*
X265162550Y-53256200D02*
X262662550Y-53256200D01*
X262662550Y-50756200D01*
X265162550Y-50756200D01*
X265162550Y-53256200D01*
G36*
X265162550Y-53256200D02*
G01*
X262662550Y-53256200D01*
X262662550Y-50756200D01*
X265162550Y-50756200D01*
X265162550Y-53256200D01*
G37*
X280362550Y-53256200D02*
X277862550Y-53256200D01*
X277862550Y-50756200D01*
X280362550Y-50756200D01*
X280362550Y-53256200D01*
G36*
X280362550Y-53256200D02*
G01*
X277862550Y-53256200D01*
X277862550Y-50756200D01*
X280362550Y-50756200D01*
X280362550Y-53256200D01*
G37*
%TO.C,SW50*%
X250412550Y-52218700D02*
X259412550Y-52218700D01*
X250412550Y-55718700D02*
X250412550Y-52218700D01*
X259412550Y-52218700D02*
X259412550Y-55718700D01*
X259412550Y-55718700D02*
X250412550Y-55718700D01*
D12*
%TO.C,C1*%
X256175050Y-82323700D02*
X254175050Y-82323700D01*
X254175050Y-84363700D02*
X256175050Y-84363700D01*
D10*
%TO.C,SW49*%
X251793750Y-68425000D02*
X257793750Y-68425000D01*
X251793750Y-68175000D02*
X251793750Y-68425000D01*
X251793750Y-64925000D02*
X251793750Y-65175000D01*
X257793750Y-68425000D02*
X257793750Y-68175000D01*
X257793750Y-65175000D02*
X257793750Y-64925000D01*
X257793750Y-64925000D02*
X251793750Y-64925000D01*
%TO.C,BT1*%
X271410191Y-109706483D02*
G75*
G03*
X271462550Y-124706300I52359J-7499817D01*
G01*
%TO.C,D50*%
X258256250Y-73068700D02*
X258256250Y-74568700D01*
X258256250Y-74568700D02*
X252856250Y-74568700D01*
X256056250Y-73318700D02*
X256056250Y-74318700D01*
X255956250Y-73818700D02*
X255056250Y-73318700D01*
X255056250Y-73318700D02*
X255056250Y-74318700D01*
X255056250Y-74318700D02*
X255956250Y-73818700D01*
X252856250Y-73068700D02*
X258256250Y-73068700D01*
X252856250Y-74568700D02*
X252856250Y-73068700D01*
%TO.C,BT2*%
X271410191Y-87750183D02*
G75*
G03*
X271462550Y-102750000I52359J-7499817D01*
G01*
%TO.C,D49*%
X258256250Y-77831200D02*
X258256250Y-79331200D01*
X258256250Y-79331200D02*
X252856250Y-79331200D01*
X256056250Y-78081200D02*
X256056250Y-79081200D01*
X255956250Y-78581200D02*
X255056250Y-78081200D01*
X255056250Y-78081200D02*
X255056250Y-79081200D01*
X255056250Y-79081200D02*
X255956250Y-78581200D01*
X252856250Y-77831200D02*
X258256250Y-77831200D01*
X252856250Y-79331200D02*
X252856250Y-77831200D01*
%TD*%
D13*
%TO.C,U1*%
X263898950Y-54578200D03*
X263898950Y-57118200D03*
X263898950Y-59658200D03*
X263898950Y-62198200D03*
X263898950Y-64738200D03*
X263898950Y-67278200D03*
X263898950Y-69818200D03*
X263898950Y-72358200D03*
X263898950Y-74898200D03*
X263898950Y-77438200D03*
X263898950Y-79978200D03*
X263898950Y-82518200D03*
X279118950Y-82518200D03*
X279118950Y-79978200D03*
X279118950Y-77438200D03*
X279118950Y-74898200D03*
X279118950Y-72358200D03*
X279118950Y-69818200D03*
X279118950Y-67278200D03*
X279118950Y-64738200D03*
X279118950Y-62198200D03*
X279118950Y-59658200D03*
X279118950Y-57118200D03*
X279118950Y-54578200D03*
X279118950Y-52038200D03*
X263898950Y-52038200D03*
%TD*%
%TO.C,J2*%
X257175050Y-96794000D03*
X257175050Y-94254000D03*
%TD*%
%LPC*%
D14*
%TO.C,SW5*%
X96893750Y-59531200D03*
D15*
X97313750Y-59531200D03*
D16*
X97393750Y-63231200D03*
D17*
X98583750Y-56991200D03*
D18*
X102393750Y-59531200D03*
D16*
X102393750Y-65431200D03*
D17*
X104933750Y-54451200D03*
D15*
X107473750Y-59531200D03*
D14*
X107893750Y-59531200D03*
%TD*%
%TO.C,SW3*%
X58793750Y-59531200D03*
D15*
X59213750Y-59531200D03*
D16*
X59293750Y-63231200D03*
D17*
X60483750Y-56991200D03*
D18*
X64293750Y-59531200D03*
D16*
X64293750Y-65431200D03*
D17*
X66833750Y-54451200D03*
D15*
X69373750Y-59531200D03*
D14*
X69793750Y-59531200D03*
%TD*%
%TO.C,SW25*%
X30218750Y-97631200D03*
D15*
X30638750Y-97631200D03*
D16*
X30718750Y-101331200D03*
D17*
X31908750Y-95091200D03*
D18*
X35718750Y-97631200D03*
D16*
X35718750Y-103531200D03*
D17*
X38258750Y-92551200D03*
D15*
X40798750Y-97631200D03*
D14*
X41218750Y-97631200D03*
%TD*%
%TO.C,SW27*%
X68318750Y-97631200D03*
D15*
X68738750Y-97631200D03*
D16*
X68818750Y-101331200D03*
D17*
X70008750Y-95091200D03*
D18*
X73818750Y-97631200D03*
D16*
X73818750Y-103531200D03*
D17*
X76358750Y-92551200D03*
D15*
X78898750Y-97631200D03*
D14*
X79318750Y-97631200D03*
%TD*%
%TO.C,SW38*%
X65031250Y-116681200D03*
D15*
X64611250Y-116681200D03*
D17*
X62071250Y-111601200D03*
D16*
X59531250Y-122581200D03*
D18*
X59531250Y-116681200D03*
D17*
X55721250Y-114141200D03*
D16*
X54531250Y-120381200D03*
D15*
X54451250Y-116681200D03*
D14*
X54031250Y-116681200D03*
%TD*%
D13*
%TO.C,U1*%
X263898950Y-54578200D03*
X263898950Y-57118200D03*
X263898950Y-59658200D03*
X263898950Y-62198200D03*
X263898950Y-64738200D03*
X263898950Y-67278200D03*
X263898950Y-69818200D03*
X263898950Y-72358200D03*
X263898950Y-74898200D03*
X263898950Y-77438200D03*
X263898950Y-79978200D03*
X263898950Y-82518200D03*
X279118950Y-82518200D03*
X279118950Y-79978200D03*
X279118950Y-77438200D03*
X279118950Y-74898200D03*
X279118950Y-72358200D03*
X279118950Y-69818200D03*
X279118950Y-67278200D03*
X279118950Y-64738200D03*
X279118950Y-62198200D03*
X279118950Y-59658200D03*
X279118950Y-57118200D03*
X279118950Y-54578200D03*
X279118950Y-52038200D03*
X263898950Y-52038200D03*
%TD*%
D14*
%TO.C,SW19*%
X150756250Y-78581200D03*
D15*
X150336250Y-78581200D03*
D17*
X147796250Y-73501200D03*
D16*
X145256250Y-84481200D03*
D18*
X145256250Y-78581200D03*
D17*
X141446250Y-76041200D03*
D16*
X140256250Y-82281200D03*
D15*
X140176250Y-78581200D03*
D14*
X139756250Y-78581200D03*
%TD*%
%TO.C,SW11*%
X211193750Y-59531200D03*
D15*
X211613750Y-59531200D03*
D16*
X211693750Y-63231200D03*
D17*
X212883750Y-56991200D03*
D18*
X216693750Y-59531200D03*
D16*
X216693750Y-65431200D03*
D17*
X219233750Y-54451200D03*
D15*
X221773750Y-59531200D03*
D14*
X222193750Y-59531200D03*
%TD*%
%TO.C,SW21*%
X188856250Y-78581200D03*
D15*
X188436250Y-78581200D03*
D17*
X185896250Y-73501200D03*
D16*
X183356250Y-84481200D03*
D18*
X183356250Y-78581200D03*
D17*
X179546250Y-76041200D03*
D16*
X178356250Y-82281200D03*
D15*
X178276250Y-78581200D03*
D14*
X177856250Y-78581200D03*
%TD*%
%TO.C,SW7*%
X134993750Y-59531200D03*
D15*
X135413750Y-59531200D03*
D16*
X135493750Y-63231200D03*
D17*
X136683750Y-56991200D03*
D18*
X140493750Y-59531200D03*
D16*
X140493750Y-65431200D03*
D17*
X143033750Y-54451200D03*
D15*
X145573750Y-59531200D03*
D14*
X145993750Y-59531200D03*
%TD*%
D13*
%TO.C,J2*%
X257175050Y-96794000D03*
X257175050Y-94254000D03*
%TD*%
D14*
%TO.C,SW10*%
X192143750Y-59531200D03*
D15*
X192563750Y-59531200D03*
D16*
X192643750Y-63231200D03*
D17*
X193833750Y-56991200D03*
D18*
X197643750Y-59531200D03*
D16*
X197643750Y-65431200D03*
D17*
X200183750Y-54451200D03*
D15*
X202723750Y-59531200D03*
D14*
X203143750Y-59531200D03*
%TD*%
%TO.C,SW4*%
X77843750Y-59531200D03*
D15*
X78263750Y-59531200D03*
D16*
X78343750Y-63231200D03*
D17*
X79533750Y-56991200D03*
D18*
X83343750Y-59531200D03*
D16*
X83343750Y-65431200D03*
D17*
X85883750Y-54451200D03*
D15*
X88423750Y-59531200D03*
D14*
X88843750Y-59531200D03*
%TD*%
%TO.C,SW20*%
X169806250Y-78581200D03*
D15*
X169386250Y-78581200D03*
D17*
X166846250Y-73501200D03*
D16*
X164306250Y-84481200D03*
D18*
X164306250Y-78581200D03*
D17*
X160496250Y-76041200D03*
D16*
X159306250Y-82281200D03*
D15*
X159226250Y-78581200D03*
D14*
X158806250Y-78581200D03*
%TD*%
%TO.C,SW6*%
X115943750Y-59531200D03*
D15*
X116363750Y-59531200D03*
D16*
X116443750Y-63231200D03*
D17*
X117633750Y-56991200D03*
D18*
X121443750Y-59531200D03*
D16*
X121443750Y-65431200D03*
D17*
X123983750Y-54451200D03*
D15*
X126523750Y-59531200D03*
D14*
X126943750Y-59531200D03*
%TD*%
D19*
%TO.C,SW50*%
X252412550Y-54768700D03*
X254912550Y-54768700D03*
X257412550Y-54768700D03*
%TD*%
D14*
%TO.C,SW16*%
X93606250Y-78581200D03*
D15*
X93186250Y-78581200D03*
D17*
X90646250Y-73501200D03*
D16*
X88106250Y-84481200D03*
D18*
X88106250Y-78581200D03*
D17*
X84296250Y-76041200D03*
D16*
X83106250Y-82281200D03*
D15*
X83026250Y-78581200D03*
D14*
X82606250Y-78581200D03*
%TD*%
D20*
%TO.C,C1*%
X257175050Y-83343700D03*
X253175050Y-83343700D03*
%TD*%
D14*
%TO.C,SW14*%
X44506250Y-78581200D03*
D15*
X44926250Y-78581200D03*
D16*
X45006250Y-82281200D03*
D17*
X46196250Y-76041200D03*
D18*
X50006250Y-78581200D03*
D16*
X50006250Y-84481200D03*
D17*
X52546250Y-73501200D03*
D15*
X55086250Y-78581200D03*
D14*
X55506250Y-78581200D03*
%TD*%
%TO.C,SW17*%
X112656250Y-78581200D03*
D15*
X112236250Y-78581200D03*
D17*
X109696250Y-73501200D03*
D16*
X107156250Y-84481200D03*
D18*
X107156250Y-78581200D03*
D17*
X103346250Y-76041200D03*
D16*
X102156250Y-82281200D03*
D15*
X102076250Y-78581200D03*
D14*
X101656250Y-78581200D03*
%TD*%
%TO.C,SW9*%
X173093750Y-59531200D03*
D15*
X173513750Y-59531200D03*
D16*
X173593750Y-63231200D03*
D17*
X174783750Y-56991200D03*
D18*
X178593750Y-59531200D03*
D16*
X178593750Y-65431200D03*
D17*
X181133750Y-54451200D03*
D15*
X183673750Y-59531200D03*
D14*
X184093750Y-59531200D03*
%TD*%
D15*
%TO.C,SW49*%
X258043750Y-66675000D03*
X251543750Y-66675000D03*
%TD*%
D14*
%TO.C,SW23*%
X226956250Y-78581200D03*
D15*
X226536250Y-78581200D03*
D17*
X223996250Y-73501200D03*
D16*
X221456250Y-84481200D03*
D18*
X221456250Y-78581200D03*
D17*
X217646250Y-76041200D03*
D16*
X216456250Y-82281200D03*
D15*
X216376250Y-78581200D03*
D14*
X215956250Y-78581200D03*
%TD*%
D21*
%TO.C,BT1*%
X271462550Y-108206300D03*
X271462550Y-126206300D03*
D22*
X271462550Y-117206300D03*
%TD*%
D14*
%TO.C,SW15*%
X63556250Y-78581200D03*
D15*
X63976250Y-78581200D03*
D16*
X64056250Y-82281200D03*
D17*
X65246250Y-76041200D03*
D18*
X69056250Y-78581200D03*
D16*
X69056250Y-84481200D03*
D17*
X71596250Y-73501200D03*
D15*
X74136250Y-78581200D03*
D14*
X74556250Y-78581200D03*
%TD*%
%TO.C,SW8*%
X154043750Y-59531200D03*
D15*
X154463750Y-59531200D03*
D16*
X154543750Y-63231200D03*
D17*
X155733750Y-56991200D03*
D18*
X159543750Y-59531200D03*
D16*
X159543750Y-65431200D03*
D17*
X162083750Y-54451200D03*
D15*
X164623750Y-59531200D03*
D14*
X165043750Y-59531200D03*
%TD*%
%TO.C,SW18*%
X131706250Y-78581200D03*
D15*
X131286250Y-78581200D03*
D17*
X128746250Y-73501200D03*
D16*
X126206250Y-84481200D03*
D18*
X126206250Y-78581200D03*
D17*
X122396250Y-76041200D03*
D16*
X121206250Y-82281200D03*
D15*
X121126250Y-78581200D03*
D14*
X120706250Y-78581200D03*
%TD*%
%TO.C,SW22*%
X207906250Y-78581200D03*
D15*
X207486250Y-78581200D03*
D17*
X204946250Y-73501200D03*
D16*
X202406250Y-84481200D03*
D18*
X202406250Y-78581200D03*
D17*
X198596250Y-76041200D03*
D16*
X197406250Y-82281200D03*
D15*
X197326250Y-78581200D03*
D14*
X196906250Y-78581200D03*
%TD*%
%TO.C,SW2*%
X39743750Y-59531200D03*
D15*
X40163750Y-59531200D03*
D16*
X40243750Y-63231200D03*
D17*
X41433750Y-56991200D03*
D18*
X45243750Y-59531200D03*
D16*
X45243750Y-65431200D03*
D17*
X47783750Y-54451200D03*
D15*
X50323750Y-59531200D03*
D14*
X50743750Y-59531200D03*
%TD*%
%TO.C,SW33*%
X182618750Y-97631200D03*
D15*
X183038750Y-97631200D03*
D16*
X183118750Y-101331200D03*
D17*
X184308750Y-95091200D03*
D18*
X188118750Y-97631200D03*
D16*
X188118750Y-103531200D03*
D17*
X190658750Y-92551200D03*
D15*
X193198750Y-97631200D03*
D14*
X193618750Y-97631200D03*
%TD*%
D23*
%TO.C,D50*%
X257331250Y-73818700D03*
X253781250Y-73818700D03*
%TD*%
D14*
%TO.C,SW31*%
X144518750Y-97631200D03*
D15*
X144938750Y-97631200D03*
D16*
X145018750Y-101331200D03*
D17*
X146208750Y-95091200D03*
D18*
X150018750Y-97631200D03*
D16*
X150018750Y-103531200D03*
D17*
X152558750Y-92551200D03*
D15*
X155098750Y-97631200D03*
D14*
X155518750Y-97631200D03*
%TD*%
%TO.C,SW37*%
X45981250Y-116681200D03*
D15*
X45561250Y-116681200D03*
D17*
X43021250Y-111601200D03*
D16*
X40481250Y-122581200D03*
D18*
X40481250Y-116681200D03*
D17*
X36671250Y-114141200D03*
D16*
X35481250Y-120381200D03*
D15*
X35401250Y-116681200D03*
D14*
X34981250Y-116681200D03*
%TD*%
%TO.C,SW42*%
X141231250Y-116681200D03*
D15*
X140811250Y-116681200D03*
D17*
X138271250Y-111601200D03*
D16*
X135731250Y-122581200D03*
D18*
X135731250Y-116681200D03*
D17*
X131921250Y-114141200D03*
D16*
X130731250Y-120381200D03*
D15*
X130651250Y-116681200D03*
D14*
X130231250Y-116681200D03*
%TD*%
D22*
%TO.C,BT2*%
X271462550Y-95250000D03*
D21*
X271462550Y-104250000D03*
X271462550Y-86250000D03*
%TD*%
D14*
%TO.C,SW40*%
X103131250Y-116681200D03*
D15*
X102711250Y-116681200D03*
D17*
X100171250Y-111601200D03*
D16*
X97631250Y-122581200D03*
D18*
X97631250Y-116681200D03*
D17*
X93821250Y-114141200D03*
D16*
X92631250Y-120381200D03*
D15*
X92551250Y-116681200D03*
D14*
X92131250Y-116681200D03*
%TD*%
%TO.C,SW29*%
X106418750Y-97631200D03*
D15*
X106838750Y-97631200D03*
D16*
X106918750Y-101331200D03*
D17*
X108108750Y-95091200D03*
D18*
X111918750Y-97631200D03*
D16*
X111918750Y-103531200D03*
D17*
X114458750Y-92551200D03*
D15*
X116998750Y-97631200D03*
D14*
X117418750Y-97631200D03*
%TD*%
%TO.C,SW48*%
X255531250Y-116681200D03*
D15*
X255111250Y-116681200D03*
D17*
X252571250Y-111601200D03*
D16*
X250031250Y-122581200D03*
D18*
X250031250Y-116681200D03*
D17*
X246221250Y-114141200D03*
D16*
X245031250Y-120381200D03*
D15*
X244951250Y-116681200D03*
D14*
X244531250Y-116681200D03*
%TD*%
%TO.C,SW46*%
X217431250Y-116681200D03*
D15*
X217011250Y-116681200D03*
D17*
X214471250Y-111601200D03*
D16*
X211931250Y-122581200D03*
D18*
X211931250Y-116681200D03*
D17*
X208121250Y-114141200D03*
D16*
X206931250Y-120381200D03*
D15*
X206851250Y-116681200D03*
D14*
X206431250Y-116681200D03*
%TD*%
%TO.C,SW34*%
X201668750Y-97631200D03*
D15*
X202088750Y-97631200D03*
D16*
X202168750Y-101331200D03*
D17*
X203358750Y-95091200D03*
D18*
X207168750Y-97631200D03*
D16*
X207168750Y-103531200D03*
D17*
X209708750Y-92551200D03*
D15*
X212248750Y-97631200D03*
D14*
X212668750Y-97631200D03*
%TD*%
%TO.C,SW24*%
X246006250Y-78581200D03*
D15*
X245586250Y-78581200D03*
D17*
X243046250Y-73501200D03*
D16*
X240506250Y-84481200D03*
D18*
X240506250Y-78581200D03*
D17*
X236696250Y-76041200D03*
D16*
X235506250Y-82281200D03*
D15*
X235426250Y-78581200D03*
D14*
X235006250Y-78581200D03*
%TD*%
%TO.C,SW39*%
X84081250Y-116681200D03*
D15*
X83661250Y-116681200D03*
D17*
X81121250Y-111601200D03*
D16*
X78581250Y-122581200D03*
D18*
X78581250Y-116681200D03*
D17*
X74771250Y-114141200D03*
D16*
X73581250Y-120381200D03*
D15*
X73501250Y-116681200D03*
D14*
X73081250Y-116681200D03*
%TD*%
%TO.C,SW28*%
X87368750Y-97631200D03*
D15*
X87788750Y-97631200D03*
D16*
X87868750Y-101331200D03*
D17*
X89058750Y-95091200D03*
D18*
X92868750Y-97631200D03*
D16*
X92868750Y-103531200D03*
D17*
X95408750Y-92551200D03*
D15*
X97948750Y-97631200D03*
D14*
X98368750Y-97631200D03*
%TD*%
%TO.C,SW13*%
X25456250Y-78581200D03*
D15*
X25876250Y-78581200D03*
D16*
X25956250Y-82281200D03*
D17*
X27146250Y-76041200D03*
D18*
X30956250Y-78581200D03*
D16*
X30956250Y-84481200D03*
D17*
X33496250Y-73501200D03*
D15*
X36036250Y-78581200D03*
D14*
X36456250Y-78581200D03*
%TD*%
%TO.C,SW36*%
X239768750Y-97631200D03*
D15*
X240188750Y-97631200D03*
D16*
X240268750Y-101331200D03*
D17*
X241458750Y-95091200D03*
D18*
X245268750Y-97631200D03*
D16*
X245268750Y-103531200D03*
D17*
X247808750Y-92551200D03*
D15*
X250348750Y-97631200D03*
D14*
X250768750Y-97631200D03*
%TD*%
%TO.C,SW43*%
X160281250Y-116681200D03*
D15*
X159861250Y-116681200D03*
D17*
X157321250Y-111601200D03*
D16*
X154781250Y-122581200D03*
D18*
X154781250Y-116681200D03*
D17*
X150971250Y-114141200D03*
D16*
X149781250Y-120381200D03*
D15*
X149701250Y-116681200D03*
D14*
X149281250Y-116681200D03*
%TD*%
%TO.C,SW26*%
X49268750Y-97631200D03*
D15*
X49688750Y-97631200D03*
D16*
X49768750Y-101331200D03*
D17*
X50958750Y-95091200D03*
D18*
X54768750Y-97631200D03*
D16*
X54768750Y-103531200D03*
D17*
X57308750Y-92551200D03*
D15*
X59848750Y-97631200D03*
D14*
X60268750Y-97631200D03*
%TD*%
%TO.C,SW41*%
X122181250Y-116681200D03*
D15*
X121761250Y-116681200D03*
D17*
X119221250Y-111601200D03*
D16*
X116681250Y-122581200D03*
D18*
X116681250Y-116681200D03*
D17*
X112871250Y-114141200D03*
D16*
X111681250Y-120381200D03*
D15*
X111601250Y-116681200D03*
D14*
X111181250Y-116681200D03*
%TD*%
%TO.C,SW30*%
X125468750Y-97631200D03*
D15*
X125888750Y-97631200D03*
D16*
X125968750Y-101331200D03*
D17*
X127158750Y-95091200D03*
D18*
X130968750Y-97631200D03*
D16*
X130968750Y-103531200D03*
D17*
X133508750Y-92551200D03*
D15*
X136048750Y-97631200D03*
D14*
X136468750Y-97631200D03*
%TD*%
%TO.C,SW35*%
X220718750Y-97631200D03*
D15*
X221138750Y-97631200D03*
D16*
X221218750Y-101331200D03*
D17*
X222408750Y-95091200D03*
D18*
X226218750Y-97631200D03*
D16*
X226218750Y-103531200D03*
D17*
X228758750Y-92551200D03*
D15*
X231298750Y-97631200D03*
D14*
X231718750Y-97631200D03*
%TD*%
%TO.C,SW47*%
X236481250Y-116681200D03*
D15*
X236061250Y-116681200D03*
D17*
X233521250Y-111601200D03*
D16*
X230981250Y-122581200D03*
D18*
X230981250Y-116681200D03*
D17*
X227171250Y-114141200D03*
D16*
X225981250Y-120381200D03*
D15*
X225901250Y-116681200D03*
D14*
X225481250Y-116681200D03*
%TD*%
%TO.C,SW12*%
X230243750Y-59531200D03*
D15*
X230663750Y-59531200D03*
D16*
X230743750Y-63231200D03*
D17*
X231933750Y-56991200D03*
D18*
X235743750Y-59531200D03*
D16*
X235743750Y-65431200D03*
D17*
X238283750Y-54451200D03*
D15*
X240823750Y-59531200D03*
D14*
X241243750Y-59531200D03*
%TD*%
%TO.C,SW45*%
X198381250Y-116681200D03*
D15*
X197961250Y-116681200D03*
D17*
X195421250Y-111601200D03*
D16*
X192881250Y-122581200D03*
D18*
X192881250Y-116681200D03*
D17*
X189071250Y-114141200D03*
D16*
X187881250Y-120381200D03*
D15*
X187801250Y-116681200D03*
D14*
X187381250Y-116681200D03*
%TD*%
%TO.C,SW1*%
X20693750Y-59531200D03*
D15*
X21113750Y-59531200D03*
D16*
X21193750Y-63231200D03*
D17*
X22383750Y-56991200D03*
D18*
X26193750Y-59531200D03*
D16*
X26193750Y-65431200D03*
D17*
X28733750Y-54451200D03*
D15*
X31273750Y-59531200D03*
D14*
X31693750Y-59531200D03*
%TD*%
%TO.C,SW32*%
X163568750Y-97631200D03*
D15*
X163988750Y-97631200D03*
D16*
X164068750Y-101331200D03*
D17*
X165258750Y-95091200D03*
D18*
X169068750Y-97631200D03*
D16*
X169068750Y-103531200D03*
D17*
X171608750Y-92551200D03*
D15*
X174148750Y-97631200D03*
D14*
X174568750Y-97631200D03*
%TD*%
%TO.C,SW44*%
X179331250Y-116681200D03*
D15*
X178911250Y-116681200D03*
D17*
X176371250Y-111601200D03*
D16*
X173831250Y-122581200D03*
D18*
X173831250Y-116681200D03*
D17*
X170021250Y-114141200D03*
D16*
X168831250Y-120381200D03*
D15*
X168751250Y-116681200D03*
D14*
X168331250Y-116681200D03*
%TD*%
D23*
%TO.C,D49*%
X257331250Y-78581200D03*
X253781250Y-78581200D03*
%TD*%
M02*
